<svg width="412" height="256" viewBox="0 0 412 256" fill="none" xmlns="http://www.w3.org/2000/svg">
<mask id="mask0_5_259" style="mask-type:luminance" maskUnits="userSpaceOnUse" x="0" y="0" width="412" height="256">
<path d="M411.733 0H0V256H411.733V0Z" fill="white"/>
</mask>
<g mask="url(#mask0_5_259)">
<mask id="mask1_5_259" style="mask-type:luminance" maskUnits="userSpaceOnUse" x="-228" y="-4" width="868" height="271">
<path d="M639.2 -4H-228V267H639.2V-4Z" fill="white"/>
</mask>
<g mask="url(#mask1_5_259)">
<mask id="mask2_5_259" style="mask-type:luminance" maskUnits="userSpaceOnUse" x="-566" y="-4" width="1543" height="271">
<path d="M967.412 -4H-556.212C-561.201 -4 -565.245 0.0443597 -565.245 5.03333V257.967C-565.245 262.956 -561.201 267 -556.212 267H967.412C972.401 267 976.445 262.956 976.445 257.967V5.03333C976.445 0.0443597 972.401 -4 967.412 -4Z" fill="white"/>
</mask>
<g mask="url(#mask2_5_259)">
<path d="M149.619 301.33L47.8979 53.252H207.847H368.145L267.197 301.33H149.619Z" fill="url(#paint0_linear_5_259)"/>
<path d="M265.925 95.2076L255.771 95.5914C252.841 95.7007 249.989 94.5649 247.844 92.4337C245.699 90.3025 244.435 87.3504 244.332 84.2265C244.228 81.1026 245.292 78.0625 247.29 75.7747C249.288 73.4869 252.057 72.1387 254.987 72.0264L265.142 71.6426" fill="url(#paint1_linear_5_259)"/>
<path d="M265.925 95.2076L255.771 95.5914C252.841 95.7007 249.989 94.5649 247.844 92.4337C245.699 90.3025 244.435 87.3504 244.332 84.2265C244.228 81.1026 245.292 78.0625 247.29 75.7747C249.288 73.4869 252.057 72.1387 254.987 72.0264L265.142 71.6426" stroke="#6D6D6D" stroke-width="1.70925" stroke-miterlimit="10" stroke-linecap="round"/>
<path d="M260.452 89.7718L255.584 89.9559C254.055 90.0137 252.566 89.4214 251.446 88.3094C250.326 87.1974 249.667 85.6567 249.613 84.0262C249.558 82.3958 250.114 80.8091 251.157 79.6153C252.2 78.4216 253.646 77.7184 255.175 77.6606L260.043 77.4766" fill="url(#paint2_linear_5_259)"/>
<path d="M260.452 89.7718L255.584 89.9559C254.055 90.0137 252.566 89.4214 251.446 88.3094C250.326 87.1974 249.667 85.6567 249.613 84.0262C249.558 82.3958 250.114 80.8091 251.157 79.6153C252.2 78.4216 253.646 77.7184 255.175 77.6606L260.043 77.4766" stroke="#6D6D6D" stroke-width="1.70925" stroke-miterlimit="10" stroke-linecap="round"/>
<path d="M373.022 95.2076L383.176 95.5914C386.107 95.7007 388.958 94.5649 391.103 92.4337C393.249 90.3025 394.512 87.3504 394.616 84.2265C394.72 81.1026 393.656 78.0625 391.658 75.7747C389.659 73.4869 386.891 72.1387 383.96 72.0264L373.806 71.6426" fill="url(#paint3_linear_5_259)"/>
<path d="M373.022 95.2076L383.176 95.5914C386.107 95.7007 388.958 94.5649 391.103 92.4337C393.249 90.3025 394.512 87.3504 394.616 84.2265C394.72 81.1026 393.656 78.0625 391.658 75.7747C389.659 73.4869 386.891 72.1387 383.96 72.0264L373.806 71.6426" stroke="#6D6D6D" stroke-width="1.70925" stroke-miterlimit="10" stroke-linecap="round"/>
<path d="M378.495 89.7718L383.363 89.9559C384.893 90.0137 386.381 89.4214 387.501 88.3094C388.621 87.1974 389.28 85.6567 389.335 84.0262C389.389 82.3958 388.833 80.8091 387.79 79.6153C386.747 78.4216 385.302 77.7184 383.772 77.6606L378.904 77.4766" fill="url(#paint4_linear_5_259)"/>
<path d="M378.495 89.7718L383.363 89.9559C384.893 90.0137 386.381 89.4214 387.501 88.3094C388.621 87.1974 389.28 85.6567 389.335 84.0262C389.389 82.3958 388.833 80.8091 387.79 79.6153C386.747 78.4216 385.302 77.7184 383.772 77.6606L378.904 77.4766" stroke="#6D6D6D" stroke-width="1.70925" stroke-miterlimit="10" stroke-linecap="round"/>
<path d="M319.31 145.215C285.52 145.215 258.128 117.823 258.128 84.0336C258.128 50.2438 285.52 22.8518 319.31 22.8518C353.099 22.8518 380.491 50.2438 380.491 84.0336C380.491 117.823 353.099 145.215 319.31 145.215Z" fill="url(#paint5_radial_5_259)" stroke="#6D6D6D" stroke-width="1.70925" stroke-linecap="round"/>
<path d="M327.126 38.048C327.126 50.6076 335.192 60.4395 344.757 60.4395C354.321 60.4395 362.387 50.6076 362.387 38.048C362.387 25.4884 354.321 15.6565 344.757 15.6565C335.192 15.6565 327.126 25.4884 327.126 38.048Z" fill="url(#paint6_linear_5_259)" stroke="#6D6D6D" stroke-width="1.70925" stroke-linecap="round"/>
<path d="M276.853 38.048C276.853 50.6076 284.919 60.4395 294.483 60.4395C304.048 60.4395 312.114 50.6076 312.114 38.048C312.114 25.4884 304.048 15.6565 294.483 15.6565C284.919 15.6565 276.853 25.4884 276.853 38.048Z" fill="url(#paint7_linear_5_259)" stroke="#6D6D6D" stroke-width="1.70925" stroke-linecap="round"/>
<path d="M326.972 41.8291H312.268" stroke="#6D6D6D" stroke-width="1.70925" stroke-linecap="round"/>
<path d="M320.585 73.483C320.31 71.5695 320.325 68.8864 322.73 68.5353C330.325 67.4296 329.415 62.2565 329.415 62.2565C329.322 59.5337 318.083 45.113 317.451 44.2979L317.394 44.2209C317.283 44.0586 317.206 43.8749 317.168 43.6814C317.13 43.4878 317.133 43.2885 317.176 43.0959C318.55 36.3797 318.941 29.5077 318.345 22.6956" stroke="#6D6D6D" stroke-width="1.70925" stroke-linecap="round" stroke-linejoin="round"/>
<path d="M343.936 54.8843C340.911 54.9232 338.428 52.5026 338.389 49.4778C338.35 46.453 340.771 43.9694 343.795 43.9306C346.82 43.8917 349.304 46.3123 349.343 49.3371C349.381 52.3619 346.961 54.8455 343.936 54.8843Z" fill="black" stroke="#6D6D6D" stroke-width="1.70925" stroke-linecap="round" stroke-linejoin="round"/>
<path d="M294.162 55.5858C291.137 55.6246 288.653 53.2041 288.614 50.1793C288.576 47.1545 290.996 44.6709 294.021 44.6321C297.046 44.5932 299.529 47.0138 299.568 50.0386C299.607 53.0634 297.186 55.5469 294.162 55.5858Z" fill="black" stroke="#6D6D6D" stroke-width="1.70925" stroke-linecap="round" stroke-linejoin="round"/>
<path d="M319.727 74.1489C332.439 74.2376 341.905 68.3649 341.829 73.047C341.901 77.5476 332.439 86.7598 319.727 86.6712C307.019 86.7598 297.553 77.5476 297.629 73.047C297.557 68.3649 307.019 74.2376 319.727 74.1489Z" fill="black" stroke="#6D6D6D" stroke-width="1.70925" stroke-linecap="round" stroke-linejoin="round"/>
<path d="M212.089 110.624C209.446 147.277 209.175 186.04 241.994 182.927C249.145 182.249 256.447 182.196 263.572 182.144C283.718 181.997 302.438 181.86 312.282 167.638C296.841 162.092 292.197 145.606 287.1 127.512C279.064 98.9836 269.903 66.4593 215.519 66.5192C207.956 66.2986 202.249 66.3078 195.848 66.5467C193.709 66.5908 191.644 66.6872 189.649 66.8336C189.613 66.8355 189.577 66.8374 189.541 66.8394V66.8415C143.245 70.2839 134.687 100.667 127.125 127.512C122.028 145.606 117.384 162.092 101.943 167.638C111.787 181.86 130.507 181.997 150.653 182.144C157.777 182.196 165.08 182.249 172.231 182.927C205.291 186.063 204.773 146.705 202.078 109.816L212.089 110.624Z" fill="url(#paint8_radial_5_259)"/>
<path d="M212.089 110.624C209.446 147.277 209.175 186.04 241.994 182.927C249.145 182.249 256.447 182.196 263.572 182.144C283.718 181.997 302.438 181.86 312.282 167.638C296.841 162.092 292.197 145.606 287.1 127.512C279.064 98.9836 269.903 66.4593 215.519 66.5192C207.956 66.2986 202.249 66.3078 195.848 66.5467C193.709 66.5908 191.644 66.6872 189.649 66.8336C189.613 66.8355 189.577 66.8374 189.541 66.8394V66.8415C143.245 70.2839 134.687 100.667 127.125 127.512C122.028 145.606 117.384 162.092 101.943 167.638C111.787 181.86 130.507 181.997 150.653 182.144C157.777 182.196 165.08 182.249 172.231 182.927C205.291 186.063 204.773 146.705 202.078 109.816L212.089 110.624Z" fill="url(#paint9_radial_5_259)"/>
<path d="M212.089 110.624C209.446 147.277 209.175 186.04 241.994 182.927C249.145 182.249 256.447 182.196 263.572 182.144C283.718 181.997 302.438 181.86 312.282 167.638C296.841 162.092 292.197 145.606 287.1 127.512C279.064 98.9836 269.903 66.4593 215.519 66.5192C207.956 66.2986 202.249 66.3078 195.848 66.5467C193.709 66.5908 191.644 66.6872 189.649 66.8336C189.613 66.8355 189.577 66.8374 189.541 66.8394V66.8415C143.245 70.2839 134.687 100.667 127.125 127.512C122.028 145.606 117.384 162.092 101.943 167.638C111.787 181.86 130.507 181.997 150.653 182.144C157.777 182.196 165.08 182.249 172.231 182.927C205.291 186.063 204.773 146.705 202.078 109.816L212.089 110.624Z" stroke="white" stroke-width="1.70925" stroke-linecap="round"/>
<path d="M110.804 175.789C125.196 170.62 130.156 155.943 134.832 139.319" stroke="white" stroke-width="1.70925" stroke-linecap="round"/>
<path d="M122.455 180.18C139.776 173.958 143.435 153.966 149.379 133.382" stroke="white" stroke-width="1.70925" stroke-linecap="round"/>
<path d="M142.423 182.023C152.865 173.321 156.252 157.168 161.02 140.533" stroke="white" stroke-width="1.70925" stroke-linecap="round"/>
<path d="M303.421 175.789C288.775 170.528 283.897 155.421 279.146 138.437" stroke="white" stroke-width="1.70925" stroke-linecap="round"/>
<path d="M291.77 180.18C274.449 173.958 270.79 153.966 264.846 133.382" stroke="white" stroke-width="1.70925" stroke-linecap="round"/>
<path d="M271.803 182.023C261.439 173.387 258.025 157.412 253.313 140.91" stroke="white" stroke-width="1.70925" stroke-linecap="round"/>
<path d="M152.954 152.213L142.646 152.602C139.671 152.713 136.776 151.56 134.599 149.397C132.421 147.233 131.139 144.237 131.033 141.065C130.928 137.894 132.008 134.808 134.036 132.486C136.065 130.163 138.875 128.795 141.85 128.681L152.158 128.291" fill="black"/>
<path d="M152.954 152.213L142.646 152.602C139.671 152.713 136.776 151.56 134.599 149.397C132.421 147.233 131.139 144.237 131.033 141.065C130.928 137.894 132.008 134.808 134.036 132.486C136.065 130.163 138.875 128.795 141.85 128.681L152.158 128.291" stroke="white" stroke-width="1.70925" stroke-miterlimit="10" stroke-linecap="round"/>
<path d="M147.398 146.694L142.456 146.881C140.903 146.94 139.392 146.339 138.256 145.21C137.119 144.081 136.449 142.517 136.394 140.862C136.339 139.207 136.903 137.596 137.962 136.384C139.021 135.172 140.488 134.458 142.041 134.4L146.983 134.213" fill="black"/>
<path d="M147.398 146.694L142.456 146.881C140.903 146.94 139.392 146.339 138.256 145.21C137.119 144.081 136.449 142.517 136.394 140.862C136.339 139.207 136.903 137.596 137.962 136.384C139.021 135.172 140.488 134.458 142.041 134.4L146.983 134.213" stroke="white" stroke-width="1.70925" stroke-miterlimit="10" stroke-linecap="round"/>
<path d="M260.081 152.211L270.389 152.6C273.363 152.711 276.258 151.558 278.436 149.395C280.613 147.231 281.896 144.235 282.001 141.063C282.107 137.892 281.027 134.806 278.998 132.484C276.97 130.161 274.159 128.793 271.184 128.679L260.876 128.289" fill="black"/>
<path d="M260.081 152.211L270.389 152.6C273.363 152.711 276.258 151.558 278.436 149.395C280.613 147.231 281.896 144.235 282.001 141.063C282.107 137.892 281.027 134.806 278.998 132.484C276.97 130.161 274.159 128.793 271.184 128.679L260.876 128.289" stroke="white" stroke-width="1.70925" stroke-miterlimit="10" stroke-linecap="round"/>
<path d="M265.636 146.692L270.578 146.879C272.131 146.938 273.642 146.337 274.779 145.208C275.916 144.079 276.585 142.515 276.64 140.86C276.695 139.205 276.131 137.594 275.072 136.382C274.013 135.17 272.546 134.456 270.994 134.398L266.052 134.211" fill="url(#paint10_linear_5_259)"/>
<path d="M265.636 146.692L270.578 146.879C272.131 146.938 273.642 146.337 274.779 145.208C275.916 144.079 276.585 142.515 276.64 140.86C276.695 139.205 276.131 137.594 275.072 136.382C274.013 135.17 272.546 134.456 270.994 134.398L266.052 134.211" stroke="white" stroke-width="1.70925" stroke-miterlimit="10" stroke-linecap="round"/>
<path fill-rule="evenodd" clip-rule="evenodd" d="M144.143 128.731C144.143 163.089 171.995 190.942 206.353 190.942C240.711 190.942 268.564 163.089 268.564 128.731C268.564 128.13 268.556 127.531 268.539 126.935C242.703 125.956 208.123 110.143 206.418 69.8901C204.612 110.557 170.123 126.655 144.15 127.785C144.145 128.1 144.143 128.415 144.143 128.731ZM206.492 66.7554C207.936 66.6967 209.355 66.6696 210.748 66.6733C209.296 66.572 207.831 66.5205 206.353 66.5205C203.583 66.5205 200.854 66.7016 198.18 67.0527C200.919 66.7018 203.695 66.521 206.492 66.521C206.492 66.5992 206.492 66.6774 206.492 66.7554Z" fill="url(#paint11_radial_5_259)"/>
<mask id="mask3_5_259" style="mask-type:luminance" maskUnits="userSpaceOnUse" x="144" y="66" width="125" height="125">
<path fill-rule="evenodd" clip-rule="evenodd" d="M144.143 128.731C144.143 163.089 171.995 190.942 206.353 190.942C240.711 190.942 268.564 163.089 268.564 128.731C268.564 128.13 268.556 127.531 268.539 126.935C242.703 125.956 208.123 110.143 206.418 69.8901C204.612 110.557 170.123 126.655 144.15 127.785C144.145 128.1 144.143 128.415 144.143 128.731ZM206.492 66.7554C207.936 66.6967 209.355 66.6696 210.748 66.6733C209.296 66.572 207.831 66.5205 206.353 66.5205C203.583 66.5205 200.854 66.7016 198.18 67.0527C200.919 66.7018 203.695 66.521 206.492 66.521C206.492 66.5992 206.492 66.6774 206.492 66.7554Z" fill="white"/>
</mask>
<g mask="url(#mask3_5_259)">
<path d="M268.539 126.935L270.247 126.886L270.202 125.287L268.603 125.227L268.539 126.935ZM206.418 69.8901L208.126 69.8178L204.711 69.8143L206.418 69.8901ZM144.15 127.785L144.075 126.077L142.465 126.147L142.441 127.759L144.15 127.785ZM210.748 66.6733L210.743 68.3825L210.867 64.9682L210.748 66.6733ZM206.492 66.7554L204.783 66.7503L204.777 68.5358L206.561 68.4633L206.492 66.7554ZM198.18 67.0527L197.957 65.358L198.397 68.7481L198.18 67.0527ZM206.492 66.521H208.202V64.8117H206.492V66.521ZM206.353 189.233C172.939 189.233 145.852 162.145 145.852 128.731H142.433C142.433 164.033 171.051 192.651 206.353 192.651V189.233ZM266.855 128.731C266.855 162.145 239.767 189.233 206.353 189.233V192.651C241.655 192.651 270.273 164.033 270.273 128.731H266.855ZM266.83 126.983C266.847 127.564 266.855 128.147 266.855 128.731H270.273C270.273 128.114 270.265 127.499 270.247 126.886L266.83 126.983ZM204.711 69.9624C205.586 90.6335 214.932 105.112 227.401 114.506C239.816 123.86 255.274 128.143 268.474 128.643L268.603 125.227C255.968 124.748 241.218 120.636 229.458 111.775C217.751 102.955 208.955 89.3999 208.126 69.8178L204.711 69.9624ZM144.224 129.492C157.494 128.915 172.964 124.52 185.385 115.022C197.857 105.484 207.199 90.8343 208.126 69.966L204.711 69.8143C203.831 89.6131 195.025 103.346 183.308 112.306C171.54 121.306 156.778 125.524 144.075 126.077L144.224 129.492ZM145.852 128.731C145.852 128.424 145.854 128.117 145.859 127.81L142.441 127.759C142.436 128.083 142.433 128.407 142.433 128.731H145.852ZM210.752 64.9641C209.334 64.9603 207.891 64.9879 206.422 65.0476L206.561 68.4633C207.982 68.4055 209.376 68.3789 210.743 68.3825L210.752 64.9641ZM206.353 68.2298C207.791 68.2298 209.217 68.2799 210.629 68.3784L210.867 64.9682C209.375 64.8641 207.87 64.8113 206.353 64.8113V68.2298ZM198.402 68.7474C201.003 68.406 203.657 68.2298 206.353 68.2298V64.8113C203.508 64.8113 200.706 64.9973 197.957 65.358L198.402 68.7474ZM206.492 64.8117C203.621 64.8117 200.773 64.9973 197.962 65.3573L198.397 68.7481C201.065 68.4063 203.769 68.2302 206.492 68.2302V64.8117ZM208.201 66.7605C208.201 66.6808 208.202 66.6009 208.202 66.521H204.783C204.783 66.5975 204.783 66.674 204.783 66.7503L208.201 66.7605Z" fill="white"/>
</g>
<path d="M210.876 157.433C210.603 155.691 210.585 153.243 212.775 152.895C219.69 151.797 218.8 147.089 218.8 147.089C218.683 144.606 208.261 131.582 207.675 130.846L207.623 130.776C207.519 130.63 207.446 130.463 207.41 130.287C207.373 130.111 207.373 129.929 207.41 129.753C208.874 122.099 208.943 114.242 207.614 106.563C207.03 103.181 206.183 99.8508 205.081 96.6016" stroke="white" stroke-width="1.70925" stroke-linecap="round" stroke-linejoin="round"/>
<path d="M181.548 135.636C184.308 135.636 186.545 133.398 186.545 130.639C186.545 127.879 184.308 125.642 181.548 125.642C178.788 125.642 176.551 127.879 176.551 130.639C176.551 133.398 178.788 135.636 181.548 135.636Z" fill="black" stroke="white" stroke-width="1.70925" stroke-linecap="round" stroke-linejoin="round"/>
<path d="M194.166 131.386C192.565 129.58 190.599 128.134 188.398 127.144C186.197 126.154 183.811 125.642 181.397 125.642C178.984 125.642 176.598 126.154 174.397 127.144C172.196 128.134 170.23 129.58 168.629 131.386" stroke="white" stroke-width="1.70925" stroke-linecap="round" stroke-linejoin="round"/>
<path d="M231.269 135.636C234.029 135.636 236.266 133.398 236.266 130.639C236.266 127.879 234.029 125.642 231.269 125.642C228.509 125.642 226.272 127.879 226.272 130.639C226.272 133.398 228.509 135.636 231.269 135.636Z" fill="black" stroke="white" stroke-width="1.70925" stroke-linecap="round" stroke-linejoin="round"/>
<path d="M243.887 131.386C242.286 129.58 240.321 128.134 238.12 127.144C235.919 126.154 233.532 125.642 231.119 125.642C228.705 125.642 226.319 126.154 224.118 127.144C221.917 128.134 219.951 129.58 218.351 131.386" stroke="white" stroke-width="1.70925" stroke-linecap="round" stroke-linejoin="round"/>
<path d="M233.293 146.911C231.614 152.406 228.213 157.216 223.591 160.63C218.97 164.045 213.374 165.884 207.628 165.876C201.883 165.867 196.292 164.013 191.68 160.585C187.069 157.157 183.681 152.338 182.018 146.838" stroke="white" stroke-width="1.70925" stroke-miterlimit="10" stroke-linecap="round"/>
<path d="M94.5327 313.161C140.116 329.135 161.495 262.765 206.694 305.244L207.88 182.794C156.333 132.154 126.654 200.79 95.7534 186.909L94.5327 313.161Z" fill="black"/>
<path d="M94.5327 313.161C140.116 329.135 161.495 262.765 206.694 305.244L207.88 182.794C156.333 132.154 126.654 200.79 95.7534 186.909" stroke="white" stroke-width="1.70925" stroke-miterlimit="10" stroke-linecap="round" stroke-linejoin="round"/>
<path d="M94.5327 322.211C140.116 338.184 161.495 271.815 206.694 314.294L207.88 191.844C156.333 141.204 126.654 209.84 95.7534 195.959L94.5327 322.211Z" fill="black"/>
<path d="M94.5327 322.211C140.116 338.184 161.495 271.815 206.694 314.294L207.88 191.844C156.333 141.204 126.654 209.84 95.7534 195.959" stroke="white" stroke-width="1.70925" stroke-miterlimit="10" stroke-linecap="round" stroke-linejoin="round"/>
<path d="M94.5325 331.261C140.116 347.234 161.495 280.865 206.694 323.344L207.88 200.894C156.333 150.253 126.653 218.89 95.7531 205.009L94.5325 331.261Z" fill="black"/>
<path d="M94.5325 331.261C140.116 347.234 161.495 280.865 206.694 323.344L207.88 200.894C156.333 150.253 126.653 218.89 95.7531 205.009" stroke="white" stroke-width="1.70925" stroke-miterlimit="10" stroke-linecap="round" stroke-linejoin="round"/>
<path d="M94.5325 340.309C140.116 356.282 161.495 289.913 206.694 332.392L207.88 209.941C156.333 159.301 126.653 227.938 95.7531 214.057L94.5325 340.309Z" fill="black"/>
<path d="M94.5325 340.309C140.116 356.282 161.495 289.913 206.694 332.392L207.88 209.941C156.333 159.301 126.653 227.938 95.7531 214.057L94.5325 340.309Z" fill="url(#paint12_linear_5_259)"/>
<path d="M94.5325 340.309C140.116 356.282 161.495 289.913 206.694 332.392L207.88 209.941C156.333 159.301 126.653 227.938 95.7531 214.057L94.5325 340.309Z" stroke="white" stroke-width="1.70925" stroke-miterlimit="10" stroke-linecap="round" stroke-linejoin="round"/>
<path d="M206.485 330.915L207.915 184.993" stroke="white" stroke-width="1.70925" stroke-miterlimit="10" stroke-linecap="round" stroke-linejoin="round"/>
<path d="M318.717 315.358C272.82 330.46 252.731 263.637 206.729 305.244L207.915 182.794C260.439 133.165 288.758 202.359 319.973 189.106L318.717 315.358Z" fill="black"/>
<path d="M318.717 315.358C272.82 330.46 252.731 263.637 206.729 305.244L207.915 182.794C260.439 133.165 288.758 202.359 319.973 189.106" stroke="white" stroke-width="1.70925" stroke-miterlimit="10" stroke-linecap="round" stroke-linejoin="round"/>
<path d="M318.717 324.408C272.82 339.509 252.731 272.687 206.729 314.294L207.915 191.843C260.439 142.215 288.758 211.409 319.973 198.156L318.717 324.408Z" fill="black"/>
<path d="M318.717 324.408C272.82 339.509 252.731 272.687 206.729 314.294L207.915 191.843C260.439 142.215 288.758 211.409 319.973 198.156" stroke="white" stroke-width="1.70925" stroke-miterlimit="10" stroke-linecap="round" stroke-linejoin="round"/>
<path d="M318.717 333.457C272.82 348.558 252.731 281.735 206.729 323.343L207.915 200.892C260.439 151.263 288.758 220.458 319.973 207.205L318.717 333.457Z" fill="black"/>
<path d="M318.717 333.457C272.82 348.558 252.731 281.735 206.729 323.343L207.915 200.892C260.439 151.263 288.758 220.458 319.973 207.205" stroke="white" stroke-width="1.70925" stroke-miterlimit="10" stroke-linecap="round" stroke-linejoin="round"/>
<path d="M318.723 341.911C318.719 342.267 318.474 342.587 318.135 342.694C273.137 356.89 252.97 292.37 208.194 331.096C207.646 331.57 206.741 331.219 206.748 330.495L207.912 210.296C207.914 210.07 208.018 209.844 208.183 209.69C259.861 161.181 288.079 227.73 318.77 216.725C319.334 216.523 319.966 216.925 319.96 217.525L318.723 341.911Z" fill="url(#paint13_linear_5_259)" stroke="white" stroke-width="1.70925" stroke-miterlimit="10" stroke-linecap="round" stroke-linejoin="round"/>
<path d="M59.998 147.346C23.3976 137.539 1.6773 99.9182 11.4844 63.3177C21.2914 26.7173 58.9121 4.99699 95.5125 14.804C132.113 24.6111 153.833 62.2318 144.026 98.8322C134.219 135.433 96.5985 157.153 59.998 147.346Z" fill="url(#paint14_radial_5_259)" stroke="white" stroke-width="1.70925" stroke-linecap="round"/>
<path d="M19.9246 92.7339L8.83086 90.2062C5.62962 89.4751 2.87489 87.4204 1.17237 84.4937C-0.530147 81.567 -1.0411 78.008 -0.248153 74.5991C0.544792 71.1903 2.57672 68.2106 5.4009 66.3153C8.22508 64.42 11.6103 63.7641 14.8123 64.492L25.9061 67.0196" fill="url(#paint15_linear_5_259)"/>
<path d="M19.9246 92.7339L8.83086 90.2062C5.62962 89.4751 2.87489 87.4204 1.17237 84.4937C-0.530147 81.567 -1.0411 78.008 -0.248153 74.5991C0.544792 71.1903 2.57672 68.2106 5.4009 66.3153C8.22508 64.42 11.6103 63.7641 14.8123 64.492L25.9061 67.0196" stroke="white" stroke-width="1.70925" stroke-miterlimit="10" stroke-linecap="round"/>
<path d="M15.5804 85.2682L10.2616 84.0564C8.59052 83.6757 7.15239 82.6038 6.26346 81.0765C5.37452 79.5492 5.10757 77.6917 5.52143 75.9125C5.93529 74.1334 6.99605 72.5783 8.47027 71.5895C9.94448 70.6006 11.7115 70.259 13.3825 70.6397L18.7013 71.8516" fill="url(#paint16_linear_5_259)"/>
<path d="M15.5804 85.2682L10.2616 84.0564C8.59052 83.6757 7.15239 82.6038 6.26346 81.0765C5.37452 79.5492 5.10757 77.6917 5.52143 75.9125C5.93529 74.1334 6.99605 72.5783 8.47027 71.5895C9.94448 70.6006 11.7115 70.259 13.3825 70.6397L18.7013 71.8516" stroke="white" stroke-width="1.70925" stroke-miterlimit="10" stroke-linecap="round"/>
<path d="M117.89 54.8646L111.445 53.1377C111.685 56.8993 111.633 60.674 111.29 64.4279C110.509 73.1095 108.159 81.5777 104.356 89.4209C104.27 89.5981 104.221 89.7908 104.212 89.9874C104.202 90.1841 104.233 90.3805 104.301 90.5651L104.337 90.6553C104.759 91.6197 112.262 108.696 111.67 111.409C111.67 111.409 111.248 116.743 103.476 115.93C101.082 115.676 100.36 118.164 100.135 120.073L100.394 120.143C104.678 121.291 109.148 121.583 113.546 121.003C117.944 120.423 122.186 118.981 126.028 116.761C129.87 114.54 133.238 111.585 135.94 108.062C138.641 104.54 140.623 100.52 141.772 96.2317C144.085 87.5751 142.868 78.3549 138.39 70.5979C133.912 62.841 126.538 57.1819 117.89 54.8646Z" fill="url(#paint17_radial_5_259)"/>
<path d="M111.488 52.9737C111.737 56.7966 111.688 60.6336 111.341 64.4496C110.555 73.1239 108.206 81.5855 104.408 89.4237C104.321 89.6003 104.271 89.793 104.261 89.9897C104.252 90.1864 104.283 90.383 104.353 90.567L104.389 90.6572C104.809 91.6207 112.288 108.679 111.697 111.391C111.697 111.391 111.273 116.72 103.519 115.911C101.075 115.659 100.365 118.309 100.159 120.258L90.6365 117.706C81.9743 115.385 74.5909 109.71 70.1104 101.929C65.6299 94.1483 64.4193 84.8988 66.7447 76.2152C69.0195 67.7292 74.4917 60.4554 82.0082 55.9266C89.5247 51.3978 98.4985 49.9678 107.039 51.9378L111.488 52.9737Z" fill="url(#paint18_radial_5_259)"/>
<path d="M100.159 120.258C100.368 118.3 101.056 115.655 103.518 115.912C111.294 116.727 111.695 111.391 111.695 111.391C112.286 108.679 104.809 91.6213 104.39 90.6579L104.354 90.5677C104.284 90.3795 104.254 90.1788 104.265 89.9782C104.277 89.7777 104.329 89.5815 104.42 89.4022C108.211 81.5701 110.556 73.1163 111.342 64.4503C111.689 60.6343 111.739 56.7974 111.489 52.9746" stroke="white" stroke-width="1.70925" stroke-linecap="round" stroke-linejoin="round"/>
<path d="M74.8266 88.2711C77.8031 89.0687 80.8626 87.3022 81.6602 84.3257C82.4578 81.3492 80.6914 78.2896 77.7148 77.4921C74.7383 76.6945 71.6787 78.4609 70.8812 81.4375C70.0836 84.414 71.85 87.4735 74.8266 88.2711Z" fill="black" stroke="white" stroke-width="1.70925" stroke-linecap="round" stroke-linejoin="round"/>
<path d="M128.453 102.641C131.429 103.439 134.489 101.672 135.286 98.6958C136.084 95.7193 134.317 92.6597 131.341 91.8622C128.364 91.0646 125.305 92.831 124.507 95.8076C123.71 98.7841 125.476 101.844 128.453 102.641Z" fill="black" stroke="white" stroke-width="1.70925" stroke-linecap="round" stroke-linejoin="round"/>
<path d="M94.6382 140.998C98.302 138.021 96.7704 133.291 96.7704 133.291" stroke="white" stroke-width="1.70925" stroke-linecap="round" stroke-linejoin="round"/>
<path d="M127.377 115.388C123.978 120.829 118.919 125.033 112.949 127.381C106.978 129.728 100.411 130.094 94.216 128.425C88.0213 126.755 82.5272 123.139 78.5443 118.11C74.5614 113.08 72.3006 106.903 72.0955 100.491" stroke="white" stroke-width="1.70925" stroke-miterlimit="10" stroke-linecap="round"/>
<path d="M113.374 84.8429C109.726 98.4591 115.607 111.503 126.026 114.295C136.445 117.087 148.06 108.731 151.709 95.1145C155.357 81.4982 149.476 68.4538 139.057 65.662C128.638 62.8701 117.023 71.2266 113.374 84.8429Z" fill="url(#paint19_linear_5_259)" stroke="white" stroke-width="1.70925" stroke-linecap="round"/>
<path d="M59.0009 70.2733C55.3524 83.8896 61.2331 96.934 71.6523 99.7259C82.0716 102.518 93.6866 94.1612 97.3351 80.545C100.983 66.9287 95.1029 53.8843 84.6836 51.0924C74.2644 48.3006 62.6493 56.6571 59.0009 70.2733Z" fill="url(#paint20_linear_5_259)" stroke="white" stroke-width="1.70925" stroke-linecap="round"/>
<path d="M112.211 88.9141L96.3076 84.6528" stroke="white" stroke-width="1.70925" stroke-linecap="round"/>
</g>
</g>
<g style="mix-blend-mode:hard-light">
<path d="M506 208H-94V256H506V208Z" fill="url(#paint21_linear_5_259)"/>
</g>
</g>
<defs>
<linearGradient id="paint0_linear_5_259" x1="158.367" y1="187.058" x2="158.865" y2="101.472" gradientUnits="userSpaceOnUse">
<stop stop-color="white"/>
<stop offset="0.110341" stop-color="white" stop-opacity="0.926142"/>
<stop offset="0.390644" stop-color="white" stop-opacity="0.36"/>
<stop offset="0.718063" stop-color="white" stop-opacity="0"/>
</linearGradient>
<linearGradient id="paint1_linear_5_259" x1="255.607" y1="86.0873" x2="263.983" y2="85.3989" gradientUnits="userSpaceOnUse">
<stop/>
<stop offset="1" stop-opacity="0"/>
</linearGradient>
<linearGradient id="paint2_linear_5_259" x1="255.27" y1="85.0056" x2="259.473" y2="84.6682" gradientUnits="userSpaceOnUse">
<stop/>
<stop offset="1" stop-opacity="0"/>
</linearGradient>
<linearGradient id="paint3_linear_5_259" x1="383.341" y1="86.0873" x2="374.965" y2="85.3989" gradientUnits="userSpaceOnUse">
<stop/>
<stop offset="1" stop-opacity="0"/>
</linearGradient>
<linearGradient id="paint4_linear_5_259" x1="383.677" y1="85.0056" x2="379.475" y2="84.6682" gradientUnits="userSpaceOnUse">
<stop/>
<stop offset="1" stop-opacity="0"/>
</linearGradient>
<radialGradient id="paint5_radial_5_259" cx="0" cy="0" r="1" gradientUnits="userSpaceOnUse" gradientTransform="translate(323.827 145.87) rotate(-88.8983) scale(79.5153 85.5111)">
<stop offset="0.0483686" stop-color="#959595"/>
<stop offset="0.933966"/>
</radialGradient>
<linearGradient id="paint6_linear_5_259" x1="331.479" y1="64.0964" x2="361.546" y2="24.8558" gradientUnits="userSpaceOnUse">
<stop offset="0.270833" stop-color="white"/>
<stop offset="0.43209" stop-color="white" stop-opacity="0"/>
</linearGradient>
<linearGradient id="paint7_linear_5_259" x1="281.206" y1="64.0964" x2="311.273" y2="24.8558" gradientUnits="userSpaceOnUse">
<stop offset="0.270833" stop-color="white"/>
<stop offset="0.43209" stop-color="white" stop-opacity="0"/>
</linearGradient>
<radialGradient id="paint8_radial_5_259" cx="0" cy="0" r="1" gradientUnits="userSpaceOnUse" gradientTransform="translate(291.451 188.301) rotate(-135.905) scale(131.43 366.302)">
<stop offset="0.05" stop-color="#CECECE"/>
<stop offset="0.93"/>
</radialGradient>
<radialGradient id="paint9_radial_5_259" cx="0" cy="0" r="1" gradientUnits="userSpaceOnUse" gradientTransform="translate(291.451 188.301) rotate(-135.905) scale(131.43 366.302)">
<stop offset="0.05" stop-color="#F4F4F4"/>
<stop offset="0.696374" stop-color="#3E3E3E"/>
</radialGradient>
<linearGradient id="paint10_linear_5_259" x1="270.897" y1="141.854" x2="266.631" y2="141.511" gradientUnits="userSpaceOnUse">
<stop/>
<stop offset="1" stop-opacity="0"/>
</linearGradient>
<radialGradient id="paint11_radial_5_259" cx="0" cy="0" r="1" gradientUnits="userSpaceOnUse" gradientTransform="translate(210.883 190.742) rotate(-88.8983) scale(79.7388 85.7515)">
<stop offset="0.0483686" stop-color="#959595"/>
<stop offset="0.933966"/>
</radialGradient>
<linearGradient id="paint12_linear_5_259" x1="100.64" y1="306.655" x2="190.252" y2="306.655" gradientUnits="userSpaceOnUse">
<stop stop-color="#646464"/>
<stop offset="0.453125"/>
</linearGradient>
<linearGradient id="paint13_linear_5_259" x1="212.832" y1="308.301" x2="302.361" y2="308.301" gradientUnits="userSpaceOnUse">
<stop stop-color="#646464"/>
<stop offset="0.453125"/>
</linearGradient>
<radialGradient id="paint14_radial_5_259" cx="0" cy="0" r="1" gradientUnits="userSpaceOnUse" gradientTransform="translate(111.271 132.684) rotate(-130.53) scale(79.4569 85.4483)">
<stop offset="0.0483686" stop-color="#959595"/>
<stop offset="0.933966"/>
</radialGradient>
<linearGradient id="paint15_linear_5_259" x1="11.4072" y1="79.8792" x2="20.6661" y2="81.5621" gradientUnits="userSpaceOnUse">
<stop/>
<stop offset="1" stop-opacity="0"/>
</linearGradient>
<linearGradient id="paint16_linear_5_259" x1="11.3564" y1="78.6113" x2="15.9996" y2="79.4643" gradientUnits="userSpaceOnUse">
<stop/>
<stop offset="1" stop-opacity="0"/>
</linearGradient>
<radialGradient id="paint17_radial_5_259" cx="0" cy="0" r="1" gradientUnits="userSpaceOnUse" gradientTransform="translate(107.242 74.0969) rotate(62.0934) scale(46.2499 61.9129)">
<stop offset="0.0483686"/>
<stop offset="0.933966" stop-opacity="0"/>
</radialGradient>
<radialGradient id="paint18_radial_5_259" cx="0" cy="0" r="1" gradientUnits="userSpaceOnUse" gradientTransform="translate(112.074 96.1088) rotate(179.832) scale(26.9347 36.4018)">
<stop offset="0.0483686"/>
<stop offset="0.723958" stop-opacity="0"/>
</radialGradient>
<linearGradient id="paint19_linear_5_259" x1="114.969" y1="58.3228" x2="125.805" y2="115.121" gradientUnits="userSpaceOnUse">
<stop offset="0.270833" stop-color="white"/>
<stop offset="0.43209" stop-color="white" stop-opacity="0"/>
</linearGradient>
<linearGradient id="paint20_linear_5_259" x1="60.5956" y1="43.7533" x2="71.4312" y2="100.551" gradientUnits="userSpaceOnUse">
<stop offset="0.270833" stop-color="white"/>
<stop offset="0.43209" stop-color="white" stop-opacity="0"/>
</linearGradient>
<linearGradient id="paint21_linear_5_259" x1="206" y1="208" x2="206" y2="256" gradientUnits="userSpaceOnUse">
<stop stop-opacity="0"/>
<stop offset="1" stop-color="#010101"/>
</linearGradient>
</defs>
</svg>
