<svg width="1152" height="360" viewBox="0 0 1152 360" fill="none" xmlns="http://www.w3.org/2000/svg">
<g clip-path="url(#clip0_6034_29200)">
<g clip-path="url(#clip1_6034_29200)">
<path d="M501.634 405.605L366.507 76.0547H578.985H791.927L657.827 405.605H501.634Z" fill="url(#paint0_linear_6034_29200)"/>
<path d="M656.137 131.789L642.648 132.299C638.755 132.444 634.967 130.936 632.117 128.105C629.268 125.273 627.589 121.352 627.451 117.202C627.313 113.052 628.727 109.014 631.381 105.975C634.036 102.935 637.714 101.144 641.607 100.995L655.096 100.485" fill="url(#paint1_linear_6034_29200)"/>
<path d="M656.137 131.789L642.648 132.299C638.755 132.444 634.967 130.936 632.117 128.105C629.268 125.273 627.589 121.352 627.451 117.202V117.202C627.313 113.052 628.727 109.014 631.381 105.975C634.036 102.935 637.714 101.144 641.607 100.995L655.096 100.485" stroke="#6D6D6D" stroke-width="2.27059" stroke-miterlimit="10" stroke-linecap="round"/>
<path d="M648.867 124.569L642.399 124.813C640.367 124.89 638.39 124.103 636.903 122.626C635.415 121.149 634.539 119.102 634.467 116.936C634.395 114.77 635.133 112.662 636.519 111.077C637.904 109.491 639.824 108.557 641.856 108.48L648.323 108.235" fill="url(#paint2_linear_6034_29200)"/>
<path d="M648.867 124.569L642.399 124.813C640.367 124.89 638.39 124.103 636.903 122.626C635.415 121.149 634.539 119.102 634.467 116.936C634.395 114.77 635.133 112.662 636.519 111.077C637.904 109.491 639.824 108.557 641.856 108.48L648.323 108.235" stroke="#6D6D6D" stroke-width="2.27059" stroke-miterlimit="10" stroke-linecap="round"/>
<path d="M798.406 131.789L811.895 132.299C815.788 132.444 819.576 130.936 822.425 128.105C825.275 125.273 826.953 121.352 827.091 117.202C827.229 113.052 825.816 109.014 823.161 105.975C820.507 102.935 816.829 101.144 812.936 100.995L799.447 100.485" fill="url(#paint3_linear_6034_29200)"/>
<path d="M798.406 131.789L811.895 132.299C815.788 132.444 819.576 130.936 822.425 128.105C825.275 125.273 826.953 121.352 827.091 117.202V117.202C827.229 113.052 825.816 109.014 823.161 105.975C820.507 102.935 816.829 101.144 812.936 100.995L799.447 100.485" stroke="#6D6D6D" stroke-width="2.27059" stroke-miterlimit="10" stroke-linecap="round"/>
<path d="M805.676 124.569L812.143 124.813C814.175 124.89 816.152 124.103 817.64 122.626C819.127 121.149 820.003 119.102 820.076 116.936C820.148 114.77 819.409 112.662 818.024 111.077C816.638 109.491 814.718 108.557 812.686 108.48L806.219 108.235" fill="url(#paint4_linear_6034_29200)"/>
<path d="M805.676 124.569L812.143 124.813C814.175 124.89 816.152 124.103 817.64 122.626C819.127 121.149 820.003 119.102 820.076 116.936C820.148 114.77 819.409 112.662 818.024 111.077C816.638 109.491 814.718 108.557 812.686 108.48L806.219 108.235" stroke="#6D6D6D" stroke-width="2.27059" stroke-miterlimit="10" stroke-linecap="round"/>
<circle cx="82.41" cy="82.41" r="81.2747" transform="matrix(-1 -8.74228e-08 -8.74228e-08 1 809.464 34.5352)" fill="url(#paint5_radial_6034_29200)" stroke="#6D6D6D" stroke-width="2.27059" stroke-linecap="round"/>
<path d="M737.437 55.857C737.437 72.5413 748.152 85.6022 760.857 85.6022C773.563 85.6022 784.278 72.5413 784.278 55.857C784.278 39.1728 773.563 26.1119 760.857 26.1119C748.152 26.1119 737.437 39.1728 737.437 55.857Z" fill="url(#paint6_linear_6034_29200)" stroke="#6D6D6D" stroke-width="2.27059" stroke-linecap="round"/>
<path d="M670.654 55.857C670.654 72.5413 681.368 85.6022 694.074 85.6022C706.78 85.6022 717.494 72.5413 717.494 55.857C717.494 39.1728 706.78 26.1119 694.074 26.1119C681.368 26.1119 670.654 39.1728 670.654 55.857Z" fill="url(#paint7_linear_6034_29200)" stroke="#6D6D6D" stroke-width="2.27059" stroke-linecap="round"/>
<path d="M737.232 60.8799L717.699 60.8799" stroke="#6D6D6D" stroke-width="2.27059" stroke-linecap="round"/>
<path d="M728.748 102.93C728.382 100.388 728.402 96.8237 731.597 96.3573C741.686 94.8885 740.478 88.0164 740.478 88.0164C740.353 84.3994 725.424 65.2427 724.584 64.16L724.509 64.0576C724.361 63.8421 724.258 63.5981 724.208 63.341C724.158 63.0839 724.162 62.819 724.218 62.5633C726.044 53.6413 726.564 44.5125 725.772 35.4633" stroke="#6D6D6D" stroke-width="2.27059" stroke-linecap="round" stroke-linejoin="round"/>
<path d="M759.767 78.2246C755.749 78.2762 752.45 75.0607 752.398 71.0425C752.347 67.0243 755.562 63.7251 759.581 63.6735C763.599 63.6219 766.898 66.8375 766.95 70.8556C767.001 74.8738 763.786 78.173 759.767 78.2246Z" fill="black" stroke="#6D6D6D" stroke-width="2.27059" stroke-linecap="round" stroke-linejoin="round"/>
<path d="M693.646 79.1553C689.628 79.2069 686.329 75.9913 686.277 71.9732C686.226 67.955 689.441 64.6558 693.459 64.6042C697.477 64.5526 700.777 67.7681 700.828 71.7863C700.88 75.8045 697.664 79.1037 693.646 79.1553Z" fill="black" stroke="#6D6D6D" stroke-width="2.27059" stroke-linecap="round" stroke-linejoin="round"/>
<path d="M727.608 103.814C744.495 103.932 757.07 96.1308 756.969 102.351C757.064 108.329 744.495 120.567 727.608 120.449C710.727 120.567 698.152 108.329 698.253 102.351C698.157 96.1308 710.727 103.932 727.608 103.814Z" fill="black" stroke="#6D6D6D" stroke-width="2.27059" stroke-linecap="round" stroke-linejoin="round"/>
<path d="M584.62 152.268C581.11 200.958 580.749 252.452 624.346 248.317C633.846 247.416 643.547 247.345 653.01 247.276C679.773 247.081 704.641 246.899 717.718 228.006C697.206 220.639 691.036 198.738 684.266 174.702C673.591 136.805 661.42 93.5992 589.177 93.6788C579.13 93.3857 571.548 93.3979 563.045 93.7153C560.204 93.7738 557.461 93.9019 554.81 94.0964C554.762 94.099 554.715 94.1015 554.668 94.1041L554.668 94.1069C493.167 98.6799 481.798 139.041 471.753 174.702C464.982 198.738 458.813 220.639 438.301 228.006C451.377 246.899 476.245 247.081 503.008 247.276C512.472 247.345 522.173 247.416 531.673 248.317C575.59 252.482 574.901 200.198 571.321 151.195L584.62 152.268Z" fill="url(#paint8_radial_6034_29200)"/>
<path d="M584.62 152.268C581.11 200.958 580.749 252.452 624.346 248.317C633.846 247.416 643.547 247.345 653.01 247.276C679.773 247.081 704.641 246.899 717.718 228.006C697.206 220.639 691.036 198.738 684.266 174.702C673.591 136.805 661.42 93.5992 589.177 93.6788C579.13 93.3857 571.548 93.3979 563.045 93.7153C560.204 93.7738 557.461 93.9019 554.81 94.0964C554.762 94.099 554.715 94.1015 554.668 94.1041L554.668 94.1069C493.167 98.6799 481.798 139.041 471.753 174.702C464.982 198.738 458.813 220.639 438.301 228.006C451.377 246.899 476.245 247.081 503.008 247.276C512.472 247.345 522.173 247.416 531.673 248.317C575.59 252.482 574.901 200.198 571.321 151.195L584.62 152.268Z" fill="url(#paint9_radial_6034_29200)"/>
<path d="M584.62 152.268C581.11 200.958 580.749 252.452 624.346 248.317C633.846 247.416 643.547 247.345 653.01 247.276C679.773 247.081 704.641 246.899 717.718 228.006C697.206 220.639 691.036 198.738 684.266 174.702C673.591 136.805 661.42 93.5992 589.177 93.6788C579.13 93.3857 571.548 93.3979 563.045 93.7153C560.204 93.7738 557.461 93.9019 554.81 94.0964C554.762 94.099 554.715 94.1015 554.668 94.1041L554.668 94.1069C493.167 98.6799 481.798 139.041 471.753 174.702C464.982 198.738 458.813 220.639 438.301 228.006C451.377 246.899 476.245 247.081 503.008 247.276C512.472 247.345 522.173 247.416 531.673 248.317C575.59 252.482 574.901 200.198 571.321 151.195L584.62 152.268Z" stroke="white" stroke-width="2.27059" stroke-linecap="round"/>
<path d="M450.072 238.835C469.191 231.967 475.779 212.471 481.99 190.388" stroke="white" stroke-width="2.27059" stroke-linecap="round"/>
<path d="M465.549 244.667C488.559 236.402 493.419 209.844 501.315 182.5" stroke="white" stroke-width="2.27059" stroke-linecap="round"/>
<path d="M492.074 247.115C505.945 235.556 510.446 214.098 516.78 192" stroke="white" stroke-width="2.27059" stroke-linecap="round"/>
<path d="M705.947 238.834C686.49 231.845 680.011 211.778 673.7 189.215" stroke="white" stroke-width="2.27059" stroke-linecap="round"/>
<path d="M690.469 244.667C667.46 236.402 662.599 209.844 654.703 182.5" stroke="white" stroke-width="2.27059" stroke-linecap="round"/>
<path d="M663.944 247.115C650.178 235.643 645.641 214.421 639.382 192.5" stroke="white" stroke-width="2.27059" stroke-linecap="round"/>
<path d="M506.064 207.513L492.371 208.031C488.419 208.178 484.574 206.647 481.681 203.773C478.788 200.899 477.084 196.918 476.944 192.705C476.804 188.492 478.239 184.393 480.934 181.308C483.628 178.222 487.362 176.404 491.314 176.253L505.007 175.735" fill="black"/>
<path d="M506.064 207.513L492.371 208.031C488.419 208.178 484.574 206.647 481.681 203.773C478.788 200.899 477.084 196.918 476.944 192.705V192.705C476.804 188.492 478.239 184.393 480.934 181.308C483.628 178.222 487.362 176.404 491.314 176.253L505.007 175.735" stroke="white" stroke-width="2.27059" stroke-miterlimit="10" stroke-linecap="round"/>
<path d="M498.683 200.183L492.118 200.431C490.056 200.509 488.049 199.71 486.539 198.211C485.028 196.711 484.139 194.634 484.066 192.435C483.993 190.236 484.742 188.097 486.149 186.487C487.555 184.877 489.504 183.929 491.567 183.851L498.132 183.603" fill="black"/>
<path d="M498.683 200.183L492.118 200.431C490.056 200.509 488.049 199.71 486.539 198.211C485.028 196.711 484.139 194.634 484.066 192.435C483.993 190.236 484.742 188.097 486.149 186.487C487.555 184.877 489.504 183.929 491.567 183.851L498.132 183.603" stroke="white" stroke-width="2.27059" stroke-miterlimit="10" stroke-linecap="round"/>
<path d="M648.373 207.513L662.066 208.031C666.018 208.178 669.863 206.647 672.756 203.773C675.649 200.899 677.353 196.918 677.493 192.705C677.633 188.492 676.198 184.393 673.503 181.308C670.809 178.222 667.075 176.404 663.123 176.253L649.43 175.735" fill="black"/>
<path d="M648.373 207.513L662.066 208.031C666.018 208.178 669.863 206.647 672.756 203.773C675.649 200.899 677.353 196.918 677.493 192.705V192.705C677.633 188.492 676.198 184.393 673.503 181.308C670.809 178.222 667.075 176.404 663.123 176.253L649.43 175.735" stroke="white" stroke-width="2.27059" stroke-miterlimit="10" stroke-linecap="round"/>
<path d="M655.753 200.183L662.319 200.431C664.381 200.509 666.388 199.71 667.898 198.211C669.409 196.711 670.298 194.634 670.371 192.435C670.444 190.236 669.695 188.097 668.288 186.487C666.882 184.877 664.933 183.929 662.87 183.851L656.305 183.603" fill="url(#paint10_linear_6034_29200)"/>
<path d="M655.753 200.183L662.319 200.431C664.381 200.509 666.388 199.71 667.898 198.211C669.409 196.711 670.298 194.634 670.371 192.435C670.444 190.236 669.695 188.097 668.288 186.487C666.882 184.877 664.933 183.929 662.87 183.851L656.305 183.603" stroke="white" stroke-width="2.27059" stroke-miterlimit="10" stroke-linecap="round"/>
<mask id="path-34-inside-1_6034_29200" fill="white">
<path fill-rule="evenodd" clip-rule="evenodd" d="M494.359 176.321C494.359 221.963 531.359 258.963 577.001 258.963C622.643 258.963 659.643 221.963 659.643 176.321C659.643 175.523 659.631 174.728 659.609 173.935C625.287 172.636 579.35 151.629 577.087 98.1542C574.688 152.178 528.872 173.562 494.369 175.063C494.362 175.482 494.359 175.901 494.359 176.321ZM577.185 93.9924C579.107 93.9142 580.994 93.8782 582.847 93.8833C580.976 93.7525 579.088 93.684 577.185 93.6799C577.185 93.7842 577.185 93.8883 577.185 93.9924ZM577.001 93.6797L577.096 93.6797C573.478 93.6835 569.887 93.915 566.341 94.3608C569.831 93.9114 573.389 93.6797 577.001 93.6797Z"/>
</mask>
<path fill-rule="evenodd" clip-rule="evenodd" d="M494.359 176.321C494.359 221.963 531.359 258.963 577.001 258.963C622.643 258.963 659.643 221.963 659.643 176.321C659.643 175.523 659.631 174.728 659.609 173.935C625.287 172.636 579.35 151.629 577.087 98.1542C574.688 152.178 528.872 173.562 494.369 175.063C494.362 175.482 494.359 175.901 494.359 176.321ZM577.185 93.9924C579.107 93.9142 580.994 93.8782 582.847 93.8833C580.976 93.7525 579.088 93.684 577.185 93.6799C577.185 93.7842 577.185 93.8883 577.185 93.9924ZM577.001 93.6797L577.096 93.6797C573.478 93.6835 569.887 93.915 566.341 94.3608C569.831 93.9114 573.389 93.6797 577.001 93.6797Z" fill="url(#paint11_radial_6034_29200)"/>
<path d="M494.359 176.321L496.63 176.321V176.321H494.359ZM659.643 176.321L661.913 176.321V176.321H659.643ZM659.609 173.935L661.878 173.871L661.818 171.747L659.695 171.666L659.609 173.935ZM577.087 98.1542L579.356 98.0582L574.819 98.0535L577.087 98.1542ZM494.369 175.063L494.27 172.795L492.13 172.888L492.098 175.03L494.369 175.063ZM582.847 93.8833L582.841 96.1538L583.005 91.6182L582.847 93.8833ZM577.185 93.9924L574.914 93.9855L574.907 96.3574L577.277 96.2611L577.185 93.9924ZM577.185 93.6799L577.19 91.4093L574.915 91.4043V93.6799H577.185ZM577.096 93.6797L577.099 95.9503L577.097 91.4092L577.096 93.6797ZM577.001 93.6797L577.002 91.4091H577.001V93.6797ZM566.341 94.3608L566.051 92.1088L566.624 96.6137L566.341 94.3608ZM577.001 256.692C532.613 256.692 496.63 220.709 496.63 176.321L492.089 176.321C492.089 223.217 530.105 261.234 577.001 261.234V256.692ZM657.372 176.321C657.372 220.709 621.389 256.692 577.001 256.692V261.234C623.897 261.234 661.913 223.217 661.913 176.321L657.372 176.321ZM657.339 174C657.361 174.771 657.372 175.545 657.372 176.321H661.913C661.913 175.502 661.902 174.685 661.878 173.871L657.339 174ZM574.818 98.2502C575.981 125.711 588.397 144.944 604.96 157.424C621.452 169.85 641.987 175.54 659.523 176.204L659.695 171.666C642.909 171.031 623.315 165.567 607.692 153.797C592.141 142.079 580.457 124.072 579.356 98.0582L574.818 98.2502ZM494.467 177.332C512.096 176.565 532.646 170.726 549.146 158.108C565.715 145.438 578.124 125.977 579.355 98.255L574.819 98.0535C573.651 124.355 561.953 142.598 546.388 154.501C530.754 166.456 511.145 172.061 494.27 172.795L494.467 177.332ZM496.63 176.321C496.63 175.913 496.633 175.505 496.639 175.097L492.098 175.03C492.092 175.459 492.089 175.89 492.089 176.321H496.63ZM582.853 91.6127C580.966 91.6076 579.046 91.6442 577.093 91.7236L577.277 96.2611C579.167 96.1842 581.021 96.1489 582.841 96.1538L582.853 91.6127ZM577.18 95.9505C579.032 95.9545 580.869 96.0211 582.689 96.1483L583.005 91.6182C581.083 91.4839 579.144 91.4136 577.19 91.4093L577.18 95.9505ZM579.455 93.9992C579.456 93.8929 579.456 93.7865 579.456 93.6799H574.915C574.915 93.7818 574.915 93.8837 574.914 93.9855L579.455 93.9992ZM577.097 91.4092L577.002 91.4091L577 95.9503L577.095 95.9503L577.097 91.4092ZM566.624 96.6137C570.078 96.1794 573.576 95.954 577.099 95.9503L577.094 91.4092C573.38 91.413 569.695 91.6506 566.058 92.108L566.624 96.6137ZM577.001 91.4091C573.292 91.4091 569.637 91.6471 566.051 92.1088L566.631 96.6128C570.025 96.1758 573.486 95.9503 577.001 95.9503V91.4091Z" fill="white" mask="url(#path-34-inside-1_6034_29200)"/>
<path d="M583.009 214.45C582.645 212.136 582.622 208.884 585.531 208.421C594.718 206.963 593.535 200.708 593.535 200.708C593.379 197.41 579.535 180.109 578.756 179.131L578.687 179.039C578.549 178.844 578.452 178.623 578.404 178.389C578.355 178.155 578.355 177.913 578.404 177.679C580.349 167.511 580.441 157.074 578.675 146.874C577.9 142.381 576.775 137.957 575.311 133.641" stroke="white" stroke-width="2.27059" stroke-linecap="round" stroke-linejoin="round"/>
<path d="M544.049 185.494C547.715 185.494 550.687 182.522 550.687 178.856C550.687 175.19 547.715 172.218 544.049 172.218C540.382 172.218 537.41 175.19 537.41 178.856C537.41 182.522 540.382 185.494 544.049 185.494Z" fill="black" stroke="white" stroke-width="2.27059" stroke-linecap="round" stroke-linejoin="round"/>
<path d="M560.81 179.849C558.684 177.45 556.072 175.529 553.148 174.213C550.225 172.898 547.055 172.218 543.849 172.218C540.643 172.218 537.473 172.898 534.549 174.213C531.625 175.529 529.014 177.45 526.887 179.849" stroke="white" stroke-width="2.27059" stroke-linecap="round" stroke-linejoin="round"/>
<path d="M610.099 185.494C613.765 185.494 616.737 182.522 616.737 178.856C616.737 175.19 613.765 172.218 610.099 172.218C606.433 172.218 603.461 175.19 603.461 178.856C603.461 182.522 606.433 185.494 610.099 185.494Z" fill="black" stroke="white" stroke-width="2.27059" stroke-linecap="round" stroke-linejoin="round"/>
<path d="M626.861 179.849C624.735 177.45 622.123 175.529 619.199 174.213C616.275 172.898 613.106 172.218 609.9 172.218C606.693 172.218 603.524 172.898 600.6 174.213C597.676 175.529 595.065 177.45 592.938 179.849" stroke="white" stroke-width="2.27059" stroke-linecap="round" stroke-linejoin="round"/>
<path d="M612.788 200.473C610.557 207.772 606.039 214.161 599.9 218.697C593.761 223.233 586.327 225.676 578.694 225.665C571.062 225.655 563.634 223.191 557.509 218.637C551.383 214.084 546.883 207.682 544.673 200.376" stroke="white" stroke-width="2.27059" stroke-miterlimit="10" stroke-linecap="round"/>
<path d="M428.457 421.321C489.01 442.54 517.41 354.374 577.454 410.804L579.029 248.14C510.553 180.869 471.126 272.046 430.078 253.607L428.457 421.321Z" fill="black"/>
<path d="M428.457 421.321C489.01 442.54 517.41 354.374 577.454 410.804L579.029 248.14C510.553 180.869 471.126 272.046 430.078 253.607" stroke="white" stroke-width="2.27059" stroke-miterlimit="10" stroke-linecap="round" stroke-linejoin="round"/>
<path d="M428.457 433.343C489.01 454.562 517.41 366.396 577.454 422.826L579.029 260.161C510.553 192.89 471.126 284.067 430.078 265.628L428.457 433.343Z" fill="black"/>
<path d="M428.457 433.343C489.01 454.562 517.41 366.396 577.454 422.826L579.029 260.161C510.553 192.89 471.126 284.067 430.078 265.628" stroke="white" stroke-width="2.27059" stroke-miterlimit="10" stroke-linecap="round" stroke-linejoin="round"/>
<path d="M428.457 445.364C489.01 466.583 517.41 378.417 577.454 434.847L579.029 272.183C510.553 204.911 471.126 296.089 430.078 277.65L428.457 445.364Z" fill="black"/>
<path d="M428.457 445.364C489.01 466.583 517.41 378.417 577.454 434.847L579.029 272.183C510.553 204.911 471.126 296.089 430.078 277.65" stroke="white" stroke-width="2.27059" stroke-miterlimit="10" stroke-linecap="round" stroke-linejoin="round"/>
<path d="M428.456 457.384C489.01 478.603 517.41 390.437 577.454 446.867L579.029 284.202C510.553 216.931 471.126 308.109 430.078 289.669L428.456 457.384Z" fill="black"/>
<path d="M428.456 457.384C489.01 478.603 517.41 390.437 577.454 446.867L579.029 284.202C510.553 216.931 471.126 308.109 430.078 289.669L428.456 457.384Z" fill="url(#paint12_linear_6034_29200)"/>
<path d="M428.456 457.384C489.01 478.603 517.41 390.437 577.454 446.867L579.029 284.202C510.553 216.931 471.126 308.109 430.078 289.669L428.456 457.384Z" stroke="white" stroke-width="2.27059" stroke-miterlimit="10" stroke-linecap="round" stroke-linejoin="round"/>
<path d="M577.176 444.906L579.075 251.062" stroke="white" stroke-width="2.27059" stroke-miterlimit="10" stroke-linecap="round" stroke-linejoin="round"/>
<path d="M726.266 424.24C665.296 444.301 638.61 355.532 577.5 410.804L579.076 248.139C648.849 182.212 686.469 274.131 727.934 256.525L726.266 424.24Z" fill="black"/>
<path d="M726.266 424.24C665.296 444.301 638.61 355.532 577.5 410.804L579.076 248.139C648.849 182.212 686.469 274.131 727.934 256.525" stroke="white" stroke-width="2.27059" stroke-miterlimit="10" stroke-linecap="round" stroke-linejoin="round"/>
<path d="M726.266 436.261C665.296 456.322 638.61 367.554 577.5 422.826L579.076 260.161C648.849 194.233 686.469 286.152 727.934 268.547L726.266 436.261Z" fill="black"/>
<path d="M726.266 436.261C665.296 456.322 638.61 367.554 577.5 422.826L579.076 260.161C648.849 194.233 686.469 286.152 727.934 268.547" stroke="white" stroke-width="2.27059" stroke-miterlimit="10" stroke-linecap="round" stroke-linejoin="round"/>
<path d="M726.266 448.283C665.296 468.344 638.61 379.575 577.5 434.847L579.076 272.182C648.849 206.255 686.469 298.174 727.934 280.568L726.266 448.283Z" fill="black"/>
<path d="M726.266 448.283C665.296 468.344 638.61 379.575 577.5 434.847L579.076 272.182C648.849 206.255 686.469 298.174 727.934 280.568" stroke="white" stroke-width="2.27059" stroke-miterlimit="10" stroke-linecap="round" stroke-linejoin="round"/>
<path d="M726.274 459.513C726.269 459.986 725.944 460.411 725.493 460.553C665.717 479.411 638.928 393.702 579.446 445.147C578.718 445.777 577.515 445.31 577.525 444.348L579.071 284.673C579.074 284.373 579.213 284.074 579.431 283.869C648.081 219.429 685.567 307.833 726.337 293.215C727.086 292.946 727.925 293.48 727.917 294.276L726.274 459.513Z" fill="url(#paint13_linear_6034_29200)" stroke="white" stroke-width="2.27059" stroke-miterlimit="10" stroke-linecap="round" stroke-linejoin="round"/>
<circle cx="92.276" cy="92.276" r="91.1407" transform="matrix(-0.965926 -0.258819 -0.258819 0.965926 519.183 47.7656)" fill="url(#paint14_radial_6034_29200)" stroke="white" stroke-width="2.27059" stroke-linecap="round"/>
<path d="M329.346 128.503L314.609 125.145C310.357 124.174 306.697 121.444 304.436 117.556C302.174 113.669 301.495 108.941 302.549 104.412C303.602 99.8841 306.301 95.9259 310.053 93.4081C313.805 90.8903 318.302 90.0191 322.555 90.986L337.292 94.3438" fill="url(#paint15_linear_6034_29200)"/>
<path d="M329.346 128.503L314.609 125.145C310.357 124.174 306.697 121.444 304.436 117.556C302.174 113.669 301.495 108.941 302.549 104.412V104.412C303.602 99.8841 306.301 95.9259 310.053 93.4081C313.805 90.8903 318.302 90.0191 322.555 90.986L337.292 94.3438" stroke="white" stroke-width="2.27059" stroke-miterlimit="10" stroke-linecap="round"/>
<path d="M323.575 118.585L316.51 116.975C314.29 116.469 312.379 115.045 311.198 113.016C310.018 110.987 309.663 108.52 310.213 106.156C310.763 103.793 312.172 101.727 314.13 100.414C316.088 99.1 318.436 98.6461 320.655 99.1519L327.721 100.762" fill="url(#paint16_linear_6034_29200)"/>
<path d="M323.575 118.585L316.51 116.975C314.29 116.469 312.379 115.045 311.198 113.016C310.018 110.987 309.663 108.52 310.213 106.156C310.763 103.793 312.172 101.727 314.13 100.414C316.088 99.1 318.436 98.6461 320.655 99.1519L327.721 100.762" stroke="white" stroke-width="2.27059" stroke-miterlimit="10" stroke-linecap="round"/>
<path d="M459.485 78.1954L450.923 75.9014C451.242 80.8984 451.173 85.9128 450.717 90.8994C449.679 102.432 446.558 113.681 441.506 124.1C441.392 124.336 441.327 124.592 441.315 124.853C441.302 125.114 441.342 125.375 441.433 125.62V125.62L441.481 125.74C442.041 127.021 452.008 149.705 451.223 153.31C451.223 153.31 450.662 160.395 440.337 159.315C437.157 158.979 436.198 162.283 435.899 164.82L436.242 164.912C441.934 166.437 447.871 166.825 453.714 166.054C459.557 165.283 465.191 163.369 470.296 160.419C475.4 157.469 479.874 153.543 483.462 148.864C487.051 144.185 489.683 138.845 491.209 133.148C494.282 121.648 492.666 109.4 486.717 99.0958C480.768 88.7913 470.973 81.2738 459.485 78.1954V78.1954Z" fill="url(#paint17_radial_6034_29200)"/>
<path d="M450.98 75.6836C451.312 80.762 451.247 85.8591 450.785 90.9283C449.74 102.451 446.62 113.692 441.575 124.104C441.459 124.339 441.393 124.595 441.38 124.856C441.368 125.117 441.409 125.379 441.502 125.623V125.623L441.55 125.743C442.108 127.023 452.043 149.684 451.258 153.286C451.258 153.286 450.695 160.366 440.394 159.291C437.148 158.956 436.205 162.476 435.931 165.065L423.281 161.675C411.774 158.592 401.966 151.053 396.014 140.717C390.062 130.38 388.454 118.093 391.543 106.558V106.558C394.565 95.2849 401.834 85.6223 411.819 79.6062C421.804 73.5901 433.725 71.6905 445.07 74.3074L450.98 75.6836Z" fill="url(#paint18_radial_6034_29200)"/>
<path d="M435.931 165.065C436.208 162.464 437.123 158.95 440.393 159.291C450.723 160.374 451.255 153.286 451.255 153.286C452.04 149.684 442.108 127.023 441.551 125.744L441.503 125.624C441.41 125.374 441.37 125.107 441.386 124.841C441.401 124.574 441.471 124.314 441.591 124.075C446.627 113.671 449.742 102.441 450.786 90.929C451.248 85.8598 451.313 80.7629 450.982 75.6846" stroke="white" stroke-width="2.27059" stroke-linecap="round" stroke-linejoin="round"/>
<path d="M402.279 122.573C406.233 123.633 410.297 121.286 411.357 117.332C412.416 113.378 410.07 109.314 406.115 108.254C402.161 107.195 398.097 109.541 397.038 113.495C395.978 117.45 398.325 121.514 402.279 122.573Z" fill="black" stroke="white" stroke-width="2.27059" stroke-linecap="round" stroke-linejoin="round"/>
<path d="M473.516 141.663C477.471 142.723 481.535 140.376 482.594 136.422C483.654 132.468 481.307 128.404 477.353 127.344C473.399 126.285 469.335 128.631 468.275 132.585C467.216 136.539 469.562 140.604 473.516 141.663Z" fill="black" stroke="white" stroke-width="2.27059" stroke-linecap="round" stroke-linejoin="round"/>
<path d="M428.597 192.617C433.464 188.662 431.429 182.38 431.429 182.38" stroke="white" stroke-width="2.27059" stroke-linecap="round" stroke-linejoin="round"/>
<path d="M472.087 158.597C467.572 165.825 460.852 171.41 452.92 174.528C444.989 177.646 436.265 178.133 428.036 175.915C419.807 173.698 412.508 168.894 407.217 162.212C401.926 155.531 398.923 147.326 398.651 138.808" stroke="white" stroke-width="2.27059" stroke-miterlimit="10" stroke-linecap="round"/>
<path d="M453.486 118.021C448.64 136.109 456.452 153.437 470.293 157.146C484.134 160.855 499.563 149.754 504.41 131.666C509.257 113.578 501.445 96.2496 487.604 92.5408C473.763 88.8321 458.333 99.933 453.486 118.021Z" fill="url(#paint19_linear_6034_29200)" stroke="white" stroke-width="2.27059" stroke-linecap="round"/>
<path d="M381.256 98.6665C376.409 116.755 384.221 134.083 398.062 137.792C411.903 141.5 427.333 130.399 432.179 112.311C437.026 94.2235 429.214 76.8951 415.373 73.1864C401.532 69.4776 386.102 80.5785 381.256 98.6665Z" fill="url(#paint20_linear_6034_29200)" stroke="white" stroke-width="2.27059" stroke-linecap="round"/>
<path d="M451.941 123.43L430.815 117.769" stroke="white" stroke-width="2.27059" stroke-linecap="round"/>
<g style="mix-blend-mode:hard-light">
<rect x="276" y="244" width="600" height="116" fill="url(#paint21_linear_6034_29200)"/>
</g>
</g>
</g>
<defs>
<linearGradient id="paint0_linear_6034_29200" x1="513.255" y1="253.804" x2="513.917" y2="140.111" gradientUnits="userSpaceOnUse">
<stop stop-color="white"/>
<stop offset="0.110341" stop-color="white" stop-opacity="0.926142"/>
<stop offset="0.390644" stop-color="white" stop-opacity="0.36"/>
<stop offset="0.718063" stop-color="white" stop-opacity="0"/>
</linearGradient>
<linearGradient id="paint1_linear_6034_29200" x1="642.429" y1="119.674" x2="653.556" y2="118.759" gradientUnits="userSpaceOnUse">
<stop/>
<stop offset="1" stop-opacity="0"/>
</linearGradient>
<linearGradient id="paint2_linear_6034_29200" x1="641.982" y1="118.237" x2="647.565" y2="117.789" gradientUnits="userSpaceOnUse">
<stop/>
<stop offset="1" stop-opacity="0"/>
</linearGradient>
<linearGradient id="paint3_linear_6034_29200" x1="812.113" y1="119.674" x2="800.986" y2="118.759" gradientUnits="userSpaceOnUse">
<stop/>
<stop offset="1" stop-opacity="0"/>
</linearGradient>
<linearGradient id="paint4_linear_6034_29200" x1="812.56" y1="118.237" x2="806.977" y2="117.789" gradientUnits="userSpaceOnUse">
<stop/>
<stop offset="1" stop-opacity="0"/>
</linearGradient>
<radialGradient id="paint5_radial_6034_29200" cx="0" cy="0" r="1" gradientUnits="userSpaceOnUse" gradientTransform="translate(76.4097 164.554) rotate(-91.1017) scale(105.629 113.594)">
<stop offset="0.0483686" stop-color="#959595"/>
<stop offset="0.933966"/>
</radialGradient>
<linearGradient id="paint6_linear_6034_29200" x1="743.219" y1="90.4601" x2="783.161" y2="38.3323" gradientUnits="userSpaceOnUse">
<stop offset="0.270833" stop-color="white"/>
<stop offset="0.43209" stop-color="white" stop-opacity="0"/>
</linearGradient>
<linearGradient id="paint7_linear_6034_29200" x1="676.436" y1="90.4601" x2="716.378" y2="38.3323" gradientUnits="userSpaceOnUse">
<stop offset="0.270833" stop-color="white"/>
<stop offset="0.43209" stop-color="white" stop-opacity="0"/>
</linearGradient>
<radialGradient id="paint8_radial_6034_29200" cx="0" cy="0" r="1" gradientUnits="userSpaceOnUse" gradientTransform="translate(690.045 255.455) rotate(-135.905) scale(174.594 486.601)">
<stop offset="0.05" stop-color="#CECECE"/>
<stop offset="0.93"/>
</radialGradient>
<radialGradient id="paint9_radial_6034_29200" cx="0" cy="0" r="1" gradientUnits="userSpaceOnUse" gradientTransform="translate(690.045 255.455) rotate(-135.905) scale(174.594 486.601)">
<stop offset="0.05" stop-color="#F4F4F4"/>
<stop offset="0.696374" stop-color="#3E3E3E"/>
</radialGradient>
<linearGradient id="paint10_linear_6034_29200" x1="662.742" y1="193.756" x2="657.075" y2="193.301" gradientUnits="userSpaceOnUse">
<stop/>
<stop offset="1" stop-opacity="0"/>
</linearGradient>
<radialGradient id="paint11_radial_6034_29200" cx="0" cy="0" r="1" gradientUnits="userSpaceOnUse" gradientTransform="translate(583.018 258.697) rotate(-88.8983) scale(105.926 113.913)">
<stop offset="0.0483686" stop-color="#959595"/>
<stop offset="0.933966"/>
</radialGradient>
<linearGradient id="paint12_linear_6034_29200" x1="436.57" y1="412.678" x2="555.612" y2="412.678" gradientUnits="userSpaceOnUse">
<stop stop-color="#646464"/>
<stop offset="0.453125"/>
</linearGradient>
<linearGradient id="paint13_linear_6034_29200" x1="585.607" y1="414.865" x2="704.538" y2="414.865" gradientUnits="userSpaceOnUse">
<stop stop-color="#646464"/>
<stop offset="0.453125"/>
</linearGradient>
<radialGradient id="paint14_radial_6034_29200" cx="0" cy="0" r="1" gradientUnits="userSpaceOnUse" gradientTransform="translate(31.5261 146.974) rotate(-34.4696) scale(105.552 113.511)">
<stop offset="0.0483686" stop-color="#959595"/>
<stop offset="0.933966"/>
</radialGradient>
<linearGradient id="paint15_linear_6034_29200" x1="318.032" y1="111.427" x2="330.331" y2="113.662" gradientUnits="userSpaceOnUse">
<stop/>
<stop offset="1" stop-opacity="0"/>
</linearGradient>
<linearGradient id="paint16_linear_6034_29200" x1="317.964" y1="109.741" x2="324.132" y2="110.875" gradientUnits="userSpaceOnUse">
<stop/>
<stop offset="1" stop-opacity="0"/>
</linearGradient>
<radialGradient id="paint17_radial_6034_29200" cx="0" cy="0" r="1" gradientUnits="userSpaceOnUse" gradientTransform="translate(445.34 103.744) rotate(62.0934) scale(61.439 82.246)">
<stop offset="0.0483686"/>
<stop offset="0.933966" stop-opacity="0"/>
</radialGradient>
<radialGradient id="paint18_radial_6034_29200" cx="0" cy="0" r="1" gradientUnits="userSpaceOnUse" gradientTransform="translate(451.759 132.985) rotate(179.832) scale(35.7805 48.3567)">
<stop offset="0.0483686"/>
<stop offset="0.723958" stop-opacity="0"/>
</radialGradient>
<linearGradient id="paint19_linear_6034_29200" x1="455.605" y1="82.7914" x2="469.999" y2="158.243" gradientUnits="userSpaceOnUse">
<stop offset="0.270833" stop-color="white"/>
<stop offset="0.43209" stop-color="white" stop-opacity="0"/>
</linearGradient>
<linearGradient id="paint20_linear_6034_29200" x1="383.374" y1="63.4369" x2="397.768" y2="138.888" gradientUnits="userSpaceOnUse">
<stop offset="0.270833" stop-color="white"/>
<stop offset="0.43209" stop-color="white" stop-opacity="0"/>
</linearGradient>
<linearGradient id="paint21_linear_6034_29200" x1="576" y1="244" x2="576" y2="360" gradientUnits="userSpaceOnUse">
<stop stop-opacity="0"/>
<stop offset="1" stop-color="#010101"/>
</linearGradient>
<clipPath id="clip0_6034_29200">
<rect width="1152" height="360" fill="white"/>
</clipPath>
<clipPath id="clip1_6034_29200">
<rect x="-448" width="2048" height="360" rx="12" fill="white"/>
</clipPath>
</defs>
</svg>
