<svg xmlns="http://www.w3.org/2000/svg" width="564" height="564" fill="none"><g clip-path="url(#a)"><path fill="url(#b)" d="M283.138 522.153c77.948 24.357 160.201-17.693 183.717-93.922s-20.61-157.771-98.558-182.128-160.202 17.693-183.718 93.922 20.61 157.771 98.559 182.128"/><path fill="url(#c)" d="M243.252 368.086c85.683-16.599 141.752-97.859 125.233-181.499S269.114 48.6 183.431 65.199C97.747 81.8 41.678 163.058 58.197 246.698c16.52 83.64 99.371 137.987 185.055 121.388"/><circle cx="450.231" cy="299.231" r="67.734" fill="url(#d)" transform="rotate(34.65 450.231 299.231)"/><circle cx="312.603" cy="235.603" r="105.379" fill="url(#e)" transform="rotate(34.65 312.603 235.603)"/><path fill="url(#f)" d="m397.729 527.07-18.547-37.818-24.552 34.233-4.442-41.892-34.813 23.733 10.137-40.891-40.819 10.457 23.492-34.965-41.924-4.182 34.072-24.799-37.994-18.223 40.477-11.694-29.426-30.147 42.036 2.905-17.363-38.385 38.53 17.048-3.204-41.999 30.336 29.23 11.404-40.548 18.554 37.817 24.544-34.232 4.449 41.886 34.813-23.727-10.137 40.885 40.818-10.458-23.49 34.971 41.923 4.182-34.073 24.793 37.995 18.23-40.477 11.693 29.427 30.147-42.038-2.911 17.357 38.385-38.523-17.048 3.198 42.006-30.33-29.231z"/><path fill="url(#g)" d="m481.746 385.734-38.313-13.142 13.654 38.148-31.465-25.505-.267 40.537-20.854-34.735-14.056 38.038-7.731-39.782-26.242 30.921 6.384-40.052-35.204 20.134 19.643-35.481-39.946 6.831 30.618-26.592-39.864-7.229 37.824-14.579-34.98-20.418 40.512-.713-25.838-31.193 38.31 13.147-13.655-38.148 31.465 25.504.267-40.536 20.855 34.735 14.05-38.042 7.732 39.782 26.246-30.917-6.389 40.048 35.209-20.13-19.647 35.478 39.946-6.831-30.613 26.595 39.864 7.229-37.825 14.579 34.981 20.417-40.512.713z"/><path fill="url(#h)" d="m244.849 110.063 38.11 13.719-13.077-38.35 31.076 25.976.879-40.527 20.328 35.045 14.629-37.82 7.129 39.893 26.706-30.52-6.989 39.95 35.505-19.6-20.177 35.181 40.045-6.227-31.016 26.126 39.75 7.83-38.04 14.007 34.668 20.943-40.518.101 25.363 31.58-38.106-13.724 13.076 38.35-31.076-25.977-.879 40.528-20.327-35.046-14.624 37.825-7.13-39.894-26.71 30.517 6.993-39.947-35.509 19.596 20.181-35.177-40.045 6.227 31.011-26.129-39.75-7.831 38.041-14.006-34.669-20.943 40.518-.101z"/><path fill="url(#i)" d="m77.732 265.071 38.425-12.811-34.007-22.029 40.486 1.17-24.393-32.377L135.9 213.97l-11.918-38.761 30.291 26.922 2.086-40.501 19.238 35.704 15.755-37.369 5.927 40.12 27.599-29.675-8.191 39.717 36.068-18.452-21.21 34.545 40.193-5.007-31.763 25.157 39.467 9.107-38.425 12.805 34.007 22.029-40.486-1.17 24.393 32.377-37.657-14.946 11.925 38.761-30.292-26.922-2.091 40.501-19.232-35.705-15.762 37.37-5.921-40.121-27.599 29.676 8.185-39.717-36.068 18.452 21.21-34.546-40.192 5.008 31.762-25.157z"/><path fill="url(#j)" d="m140.852 353.047 25.75-31.266-40.514-.599 34.923-20.516-37.866-14.473 39.844-7.341-30.688-26.509 39.965 6.719-19.748-35.422 35.266 20.031-6.502-40.031 26.334 30.843 7.619-39.803 14.158 38.001 20.756-34.793.381 40.536 31.393-25.594-13.546 38.187 38.275-13.25-25.752 31.261 40.513.599-34.923 20.516 37.866 14.472-39.843 7.342 30.692 26.505-39.965-6.719 19.743 35.426-35.261-20.034 6.497 40.034-26.328-30.847-7.62 39.803-14.163-37.998-20.756 34.794-.381-40.536-31.393 25.593 13.547-38.186z"/><path fill="url(#k)" d="M457.054 253.642c46.422 0 84.054-34.81 84.054-77.75s-37.632-77.75-84.054-77.75S373 132.952 373 175.892s37.632 77.75 84.054 77.75"/><path fill="#000" stroke="#fff" stroke-linecap="round" stroke-miterlimit="10" stroke-width="2.35" d="M456.699 234.732c36.17 0 65.492-26.5 65.492-59.188s-29.322-59.189-65.492-59.189-65.492 26.5-65.492 59.189 29.321 59.188 65.492 59.188Z"/><path fill="url(#l)" d="M456.354 213.703c-6.572 0-11.905.558-11.905-6.13 0-3.201 1.254-6.271 3.487-8.535a11.82 11.82 0 0 1 8.418-3.535c1.563-.001 3.112.31 4.557.917a11.9 11.9 0 0 1 3.864 2.616 12.1 12.1 0 0 1 2.583 3.916 12.2 12.2 0 0 1 .906 4.621c0 6.688-5.332 6.13-11.91 6.13"/><path stroke="#fff" stroke-linecap="round" stroke-linejoin="round" stroke-width="2.35" d="M456.354 213.703c-6.572 0-11.905.558-11.905-6.13 0-3.201 1.254-6.271 3.487-8.535a11.82 11.82 0 0 1 8.418-3.535c1.563-.001 3.112.31 4.557.917a11.9 11.9 0 0 1 3.864 2.616 12.1 12.1 0 0 1 2.583 3.916 12.2 12.2 0 0 1 .906 4.621c0 6.688-5.332 6.13-11.91 6.13"/><path fill="#000" stroke="#fff" stroke-linecap="round" stroke-linejoin="round" stroke-width="2.35" d="M422.031 157.666a7.004 7.004 0 1 0 0-14.009 7.004 7.004 0 0 0 0 14.009"/><path stroke="#fff" stroke-linecap="round" stroke-linejoin="round" stroke-width="2.35" d="M439.54 151.369a23.9 23.9 0 0 0-8.061-6.206 23 23 0 0 0-9.789-2.199 22.96 22.96 0 0 0-9.802 2.193 23.9 23.9 0 0 0-8.071 6.212"/><path fill="#000" stroke="#fff" stroke-linecap="round" stroke-linejoin="round" stroke-width="2.35" d="M492.083 157.666a7.005 7.005 0 1 0 0-14.01 7.005 7.005 0 0 0 0 14.01"/><path stroke="#fff" stroke-linecap="round" stroke-linejoin="round" stroke-width="2.35" d="M509.592 151.369a23.9 23.9 0 0 0-8.066-6.212 22.9 22.9 0 0 0-9.796-2.193 22.9 22.9 0 0 0-9.796 2.193 23.9 23.9 0 0 0-8.065 6.212M462.511 187.796c-.384-2.448-.415-5.886 2.712-6.376 9.851-1.536 8.588-8.15 8.588-8.15-.167-3.488-15.022-21.789-15.858-22.823l-.08-.098a1.857 1.857 0 0 1-.31-1.438 89.3 89.3 0 0 0 .291-32.577 91 91 0 0 0-3.603-13.993M460.562 234.032c4.663-6.03.109-12.608.109-12.608"/><path fill="url(#m)" stroke="#fff" stroke-linecap="round" stroke-miterlimit="10" stroke-width="2.35" d="M450.788 43.678c-10.856 29.725-21.601 57.274-31.559 82.647a81.6 81.6 0 0 0 37.123 8.936 81.6 81.6 0 0 0 37.124-8.936c-9.958-25.373-20.734-52.922-31.559-82.648-1.829-4.903-9.3-4.903-11.129 0Z"/><path fill="url(#n)" d="M421.332 184.292c8.51 0 15.409-6.899 15.409-15.41s-6.899-15.41-15.409-15.41-15.41 6.9-15.41 15.41 6.899 15.41 15.41 15.41"/><path fill="url(#o)" d="M491.374 184.292c8.51 0 15.409-6.899 15.409-15.41s-6.899-15.41-15.409-15.41-15.41 6.9-15.41 15.41 6.899 15.41 15.41 15.41"/><path fill="url(#p)" d="M353.767 390.737c37.9-11.799 59.727-49.57 48.751-84.363s-50.597-53.434-88.497-41.635-59.727 49.57-48.751 84.363 50.597 53.434 88.497 41.635"/><path fill="url(#q)" d="M366.455 384.014c34.496-19.639 47.687-61.18 29.463-92.786s-60.962-41.308-95.458-21.67c-34.496 19.639-47.686 61.18-29.462 92.786s60.962 41.308 95.457 21.67"/><path fill="url(#r)" d="M380.578 374.422c24.226-24.067 22.715-64.588-3.375-90.506-26.089-25.919-66.878-27.42-91.104-3.353-24.226 24.068-22.716 64.589 3.374 90.507 26.089 25.919 66.878 27.419 91.105 3.352"/><path fill="#000" d="M382.804 337.877h10.124a10.98 10.98 0 0 0 7.789-3.252 11.14 11.14 0 0 0 3.226-7.846 11.14 11.14 0 0 0-3.226-7.845 10.99 10.99 0 0 0-7.789-3.253h-10.124"/><path stroke="#fff" stroke-linecap="round" stroke-miterlimit="10" stroke-width="2.35" d="M382.804 337.877h10.124a10.98 10.98 0 0 0 7.789-3.252 11.14 11.14 0 0 0 3.226-7.846 11.14 11.14 0 0 0-3.226-7.845 10.99 10.99 0 0 0-7.789-3.253h-10.124"/><mask id="s" fill="#fff"><path d="M388.089 332.593h4.841a5.7 5.7 0 0 0 4.051-1.704 5.86 5.86 0 0 0 1.678-4.109 5.86 5.86 0 0 0-1.679-4.107 5.7 5.7 0 0 0-4.05-1.706h-4.841"/></mask><path fill="#000" d="M388.089 332.593h4.841a5.7 5.7 0 0 0 4.051-1.704 5.86 5.86 0 0 0 1.678-4.109 5.86 5.86 0 0 0-1.679-4.107 5.7 5.7 0 0 0-4.05-1.706h-4.841"/><path fill="#fff" d="M388.089 330.243a2.35 2.35 0 1 0 0 4.7zm4.841 2.35v2.35h.002zm5.729-5.813h2.35v-.002zm-5.729-5.813.004-2.35h-.004zm-4.841-2.35a2.35 2.35 0 1 0 0 4.7zm0 16.326h4.841v-4.7h-4.841zm4.843 0a8.05 8.05 0 0 0 5.723-2.405l-3.348-3.299a3.34 3.34 0 0 1-2.379 1.004zm5.723-2.405a8.2 8.2 0 0 0 2.354-5.758h-4.7c0 .928-.364 1.812-1.002 2.459zm2.354-5.76a8.2 8.2 0 0 0-2.355-5.755l-3.348 3.299a3.5 3.5 0 0 1 1.003 2.46zm-2.355-5.755a8.06 8.06 0 0 0-5.72-2.406l-.008 4.7a3.35 3.35 0 0 1 2.38 1.005zm-5.724-2.406h-4.841v4.7h4.841z" mask="url(#s)"/><path fill="#000" d="M288.731 337.877h-10.124a10.98 10.98 0 0 1-7.789-3.252 11.14 11.14 0 0 1-3.226-7.846c0-2.942 1.16-5.764 3.226-7.845a10.98 10.98 0 0 1 7.789-3.253h10.124"/><path stroke="#fff" stroke-linecap="round" stroke-miterlimit="10" stroke-width="2.35" d="M288.731 337.877h-10.124a10.98 10.98 0 0 1-7.789-3.252 11.14 11.14 0 0 1-3.226-7.846c0-2.942 1.16-5.764 3.226-7.845a10.98 10.98 0 0 1 7.789-3.253h10.124"/><mask id="t" fill="#fff"><path d="M283.454 332.593h-4.841a5.7 5.7 0 0 1-4.051-1.704 5.865 5.865 0 0 1 .001-8.216 5.7 5.7 0 0 1 4.05-1.706h4.841"/></mask><path fill="#000" d="M283.454 332.593h-4.841a5.7 5.7 0 0 1-4.051-1.704 5.865 5.865 0 0 1 .001-8.216 5.7 5.7 0 0 1 4.05-1.706h4.841"/><path fill="#fff" d="M283.454 334.943a2.35 2.35 0 1 0 0-4.7zm-4.841-2.35-.002 2.35h.002zm-5.729-5.813-2.35-.002v.002zm5.729-5.813v-2.35h-.004zm4.841 2.35a2.35 2.35 0 1 0 0-4.7zm0 6.926h-4.841v4.7h4.841zm-4.839 0a3.34 3.34 0 0 1-2.379-1.004l-3.348 3.299a8.05 8.05 0 0 0 5.723 2.405zm-2.379-1.004a3.5 3.5 0 0 1-1.002-2.459h-4.7c0 2.153.843 4.225 2.354 5.758zm-1.002-2.457a3.5 3.5 0 0 1 1.003-2.46l-3.347-3.299a8.21 8.21 0 0 0-2.356 5.755zm1.003-2.46a3.35 3.35 0 0 1 2.38-1.005l-.008-4.7a8.05 8.05 0 0 0-5.719 2.406zm2.376-1.005h4.841v-4.7h-4.841z" mask="url(#t)"/><path fill="#000" stroke="#fff" stroke-linecap="round" stroke-miterlimit="10" stroke-width="2.35" d="M335.237 253.367c16.663-.694 30.915 7.004 40.127 17.894 9.348 11.057 13.623 25.311 13.775 41.6-.152 16.397-4.427 33.875-13.775 51.91-9.196 17.264-23.464 35.085-40.127 34.392-16.667.693-30.914-17.128-40.131-34.392-9.348-18.035-13.624-35.513-13.776-51.91.152-16.289 4.428-30.543 13.776-41.6 9.196-10.906 23.464-18.588 40.131-17.894Z"/><path fill="url(#u)" d="M335.846 353.739h-.191c-5.396 0-9.721-1.994-11.615-3.977a4.8 4.8 0 0 1-1.082-1.572 5 5 0 0 1-.401-1.881 4.2 4.2 0 0 1 .339-1.682c.228-.53.564-1.004.984-1.39 1.606-1.47 3.491-1.2 6.101-.83 1.908.307 3.836.475 5.767.502h.144c1.897-.03 3.79-.198 5.664-.502 2.61-.376 4.495-.64 6.101.83.42.386.756.86.984 1.39s.344 1.103.339 1.682a5 5 0 0 1-.401 1.881 4.8 4.8 0 0 1-1.082 1.572c-1.899 1.983-6.224 3.977-11.651 3.977"/><path stroke="#fff" stroke-linecap="round" stroke-linejoin="round" stroke-width="2.35" d="M335.237 338.299c15.806.109 27.577-7.127 27.483-1.353.089 5.546-11.677 16.896-27.483 16.787-15.801.109-27.572-11.241-27.478-16.787-.089-5.774 11.677 1.473 27.478 1.353"/><path fill="url(#v)" d="M365.892 318.854c7.589 0 13.741-5.915 13.741-13.212s-6.152-13.212-13.741-13.212-13.74 5.915-13.74 13.212 6.152 13.212 13.74 13.212"/><path fill="url(#w)" d="M306.702 318.854c7.588 0 13.74-5.915 13.74-13.212s-6.152-13.212-13.74-13.212c-7.589 0-13.741 5.915-13.741 13.212s6.152 13.212 13.741 13.212"/><path fill="#000" stroke="#fff" stroke-linecap="round" stroke-linejoin="round" stroke-width="2.35" d="M305.123 311.45a5.813 5.813 0 1 0 0-11.626 5.813 5.813 0 0 0 0 11.626"/><path stroke="#fff" stroke-linecap="round" stroke-linejoin="round" stroke-width="2.35" d="M320.438 306.167c-1.919-2.327-4.278-4.191-6.92-5.467a19.3 19.3 0 0 0-8.405-1.931 19.3 19.3 0 0 0-8.406 1.93c-2.642 1.276-5.001 3.14-6.92 5.468"/><path fill="#000" stroke="#fff" stroke-linecap="round" stroke-linejoin="round" stroke-width="2.35" d="M365.366 311.45a5.813 5.813 0 1 0 0-11.626 5.813 5.813 0 0 0 0 11.626"/><path stroke="#fff" stroke-linecap="round" stroke-linejoin="round" stroke-width="2.35" d="M380.693 306.167c-1.919-2.328-4.279-4.192-6.921-5.468a19.3 19.3 0 0 0-8.405-1.93 19.3 19.3 0 0 0-8.405 1.931c-2.642 1.276-5.002 3.14-6.921 5.467M341.311 337.883c-.336-2.089-.363-5.023 2.334-5.441 8.502-1.311 7.407-6.956 7.407-6.956-.144-2.976-12.956-18.595-13.677-19.478a1.585 1.585 0 0 1-.326-.67 1.6 1.6 0 0 1-.005-.64 75.4 75.4 0 0 0 .251-27.802 77 77 0 0 0-3.108-11.943M339.456 375.933c4.691-5.055.11-10.57.11-10.57"/><path fill="#000" stroke="#FF5A00" stroke-linecap="round" stroke-miterlimit="10" stroke-width="2.35" d="M246.619 164.434c5.902 1.323 8.469 15.569 13.926 17.017 5.969 1.581 15.83-9.259 20.922-7.195 5.77 2.374 4.092 16.534 8.349 20.032 4.523 3.75 18.489.609 20.783 6.25 1.99 4.848-9.821 13.009-9.867 19.683-.033 5.165 12.44 12.4 11.014 18.868-1.591 7.209-16.445 10-19.231 16.422-2.931 6.779 5.093 19.557 1.068 25.277-4.251 6.045-18.926 2.646-24.132 7.275-5.51 4.928-4.078 19.967-10.338 23.089-6.545 3.267-17.315-7.097-24.331-6.091-7.016 1.005-14.748 13.941-21.883 12.367-7.136-1.574-8.694-16.534-14.662-20.39s-20.087 1.052-24.656-4.629c-4.363-5.457 3.263-18.519.339-25.278-2.766-6.408-17.521-9.464-18.834-16.732-1.246-6.879 11.413-15.119 11.605-22.487.179-6.997-12.129-15.747-10.537-22.956 1.426-6.468 15.796-7.81 17.905-12.519 2.772-6.078-4.496-18.419-.663-21.997 4.449-4.16 15.809 4.537 21.492 3.035 5.305-1.415 9.768-14.953 16.002-14.695 5.51.231 9.887 14.232 15.961 15.284 5.531.959 13.867-10.926 19.768-9.63Z"/><path fill="#000" stroke="#FF5A00" stroke-linecap="round" stroke-linejoin="round" stroke-width="2.35" d="M198.301 217.49a7.7 7.7 0 1 0 0-15.398 7.7 7.7 0 0 0 0 15.398"/><path stroke="#FF5A00" stroke-linecap="round" stroke-linejoin="round" stroke-width="2.35" d="M217.555 212.462a26.4 26.4 0 0 1-10.101 4.472 26.386 26.386 0 0 1-21.107-4.63 26.25 26.25 0 0 1-7.285-8.286"/><path fill="#000" stroke="#FF5A00" stroke-linecap="round" stroke-linejoin="round" stroke-width="2.35" d="M272.414 233.841a7.7 7.7 0 1 0 0-15.398 7.7 7.7 0 0 0 0 15.398"/><path stroke="#FF5A00" stroke-linecap="round" stroke-linejoin="round" stroke-width="2.35" d="M291.658 228.817a26.383 26.383 0 0 1-21.152 4.41 26.4 26.4 0 0 1-10.054-4.573 26.3 26.3 0 0 1-7.288-8.285M232.953 256.939c.161-2.654.952-6.33 4.372-6.124 10.782.663 10.997-6.636 10.997-6.636.67-3.729-10.729-26.541-11.399-27.815a1 1 0 0 1-.054-.126 1.97 1.97 0 0 1 0-1.593 97.3 97.3 0 0 0 7.973-34.437 99.3 99.3 0 0 0-.517-15.653M220.429 305.052c6.132-5.404 3.099-13.472 3.099-13.472"/><path stroke="#FF5A00" stroke-linecap="round" stroke-miterlimit="10" stroke-width="2.35" d="M189.64 279.232a32.43 32.43 0 0 1 15.021-13.69 32.5 32.5 0 0 1 20.233-2.073 32.45 32.45 0 0 1 17.494 10.357 32.35 32.35 0 0 1 7.879 18.719"/><path stroke="#FF5A00" stroke-linecap="round" stroke-miterlimit="10" stroke-width="2.35" d="M255.072 288.692a5.5 5.5 0 0 1 1.62 2.312c.324.89.403 1.844.23 2.772a5.4 5.4 0 0 1-1.22 2.525 5.77 5.77 0 0 1-2.358 1.635 6 6 0 0 1-2.896.328 5.94 5.94 0 0 1-2.694-1.063 5.57 5.57 0 0 1-1.806-2.183 5.3 5.3 0 0 1-.457-2.747M188.085 273.301a5.94 5.94 0 0 0-2.559 1.554 5.9 5.9 0 0 0-1.468 2.598 5.85 5.85 0 0 0-.003 2.979 5.9 5.9 0 0 0 1.462 2.601 5.967 5.967 0 0 0 8.226.331 5.9 5.9 0 0 0 1.669-2.475"/><path fill="#000" stroke="#fff" stroke-linecap="round" stroke-miterlimit="10" stroke-width="2.35" d="M288.834 102.495c40.057-1.8 72.619-1.277 74.879 48.494s-28.434 91.577-68.497 93.376-74.349-37.096-76.588-86.867c-2.24-49.771 30.143-53.211 70.206-55.003Z"/><path fill="#000" stroke="#fff" stroke-linecap="round" stroke-linejoin="round" stroke-width="2.35" d="M254.121 163.598a7.698 7.698 0 1 0 0-15.397 7.7 7.7 0 0 0-7.698 7.699 7.697 7.697 0 0 0 7.698 7.698"/><path stroke="#fff" stroke-linecap="round" stroke-linejoin="round" stroke-width="2.35" d="M272.409 155.115a25.7 25.7 0 0 0-8.981-6.05 25.57 25.57 0 0 0-21.105.956 25.8 25.8 0 0 0-8.407 6.837"/><path fill="#000" stroke="#fff" stroke-linecap="round" stroke-linejoin="round" stroke-width="2.35" d="M329.176 159.745a7.7 7.7 0 1 0 0-15.398 7.7 7.7 0 0 0 0 15.398"/><path stroke="#fff" stroke-linecap="round" stroke-linejoin="round" stroke-width="2.35" d="M348.433 152.228a25.7 25.7 0 0 0-8.981-6.05 25.56 25.56 0 0 0-21.105.955 25.8 25.8 0 0 0-8.407 6.838M312.834 199.202c-4.718 2.608-11.688 4.42-19.544 4.756s-14.963-.878-19.911-3.075M299.629 194.384c-.527-2.627-.716-6.37 2.541-7.055 10.283-2.141 8.636-9.262 8.636-9.262-.339-3.777-16.823-22.933-17.755-24.011l-.084-.099a2.02 2.02 0 0 1-.391-1.55 100.3 100.3 0 0 0-1.251-35.38A101 101 0 0 0 286.844 102M299.753 243.464c3.63-6.63-.412-13.473-.412-13.473"/><path fill="url(#x)" d="M229.901 369.358c5.399 9.45-10.897 26.637-9.164 36.899 1.787 10.468 22.826 21.112 21.07 31.603-1.734 10.33-25.201 13.774-30.081 23.331-4.757 9.244 6.232 30.303-1.283 38.077-7.163 7.408-28.515-2.77-37.977 2.663s-11.508 29.04-21.504 31.481c-10.493 2.571-23.063-17.6-33.433-18.135-10.692-.582-25.53 17.929-35.297 14.194-9.927-3.78-8.454-27.348-16.556-34.189-7.95-6.704-30.99-1.301-36.388-10.713-5.4-9.412 10.897-26.637 9.164-36.899-1.788-10.46-22.819-21.112-21.062-31.596 1.726-10.338 25.155-13.774 30.073-23.339 4.757-9.243-6.232-30.302 1.29-38.077 7.156-7.407 28.515 2.77 37.977-2.663s11.5-29.078 21.505-31.481c10.493-2.571 23.062 17.6 33.425 18.136 10.692.582 25.529-17.929 35.304-14.195 9.928 3.788 8.446 27.349 16.556 34.19 7.935 6.665 30.975 1.263 36.381 10.713"/><path fill="url(#y)" d="M194.762 503.762c35.224-35.224 32.89-94.667-5.213-132.77s-97.546-40.437-132.77-5.213-32.89 94.667 5.213 132.77 97.546 40.437 132.77 5.213"/><path fill="#000" stroke="#fff" stroke-linecap="round" stroke-miterlimit="10" stroke-width="2.35" d="M139.59 341.965c6.978 0 13.413 15.485 19.894 15.769 7.108.313 15.524-14.415 21.791-13.305 7.085 1.255 8.715 17.642 14.377 20.565 6.037 3.106 20.995-3.902 24.974 1.905 3.428 4.988-7.827 17.13-6.22 24.681 1.239 5.846 17.1 10.925 17.1 18.584 0 8.546-16.068 15.378-17.598 23.327-1.614 8.378 10.605 20.825 7.491 28.308-3.29 7.88-20.659 7.651-25.387 14.23-4.974 6.932.374 23.564-5.907 28.644-6.565 5.318-21.279-3.725-28.93-.849-7.652 2.877-13.153 19.403-21.6 19.403s-13.903-16.511-21.592-19.403c-7.69-2.892-22.373 6.167-28.938.849-6.282-5.08-.926-21.712-5.907-28.644-4.713-6.557-22.097-6.35-25.38-14.23-3.114-7.467 9.098-19.892 7.483-28.308-1.53-7.949-17.598-14.781-17.598-23.327 0-7.651 15.862-12.738 17.101-18.584 1.607-7.559-9.648-19.7-6.22-24.689 3.986-5.799 18.945 1.209 24.981-1.897 5.662-2.923 7.292-19.318 14.377-20.565 6.267-1.11 14.683 13.618 21.784 13.305 6.511-.268 12.954-15.769 19.924-15.769Z"/><path fill="url(#z)" d="M95.774 446.039c10.777 0 19.513-8.737 19.513-19.514s-8.736-19.514-19.514-19.514-19.513 8.737-19.513 19.514 8.736 19.514 19.513 19.514"/><path fill="url(#A)" d="M183.376 446.039c10.777 0 19.514-8.737 19.514-19.514s-8.737-19.514-19.514-19.514-19.513 8.737-19.513 19.514 8.736 19.514 19.513 19.514"/><path fill="#000" stroke="#fff" stroke-linecap="round" stroke-linejoin="round" stroke-width="2.35" d="M95.342 411.35a8.673 8.673 0 1 0 0-17.346 8.673 8.673 0 0 0 0 17.346"/><path stroke="#fff" stroke-linecap="round" stroke-linejoin="round" stroke-width="2.35" d="M117.891 404.411a30.1 30.1 0 0 0-10.18-7.691 29.4 29.4 0 0 0-12.366-2.716 29.4 29.4 0 0 0-12.37 2.715 30.1 30.1 0 0 0-10.183 7.692"/><path fill="#000" stroke="#fff" stroke-linecap="round" stroke-linejoin="round" stroke-width="2.35" d="M182.935 411.35a8.673 8.673 0 1 0 0-17.346 8.673 8.673 0 0 0 0 17.346"/><path stroke="#fff" stroke-linecap="round" stroke-linejoin="round" stroke-width="2.35" d="M205.48 404.411a30.1 30.1 0 0 0-10.182-7.69 29.46 29.46 0 0 0-12.367-2.717 29.4 29.4 0 0 0-12.367 2.716 30.1 30.1 0 0 0-10.182 7.691M147.191 449.506c-.484-3.055-.514-7.348 3.36-7.959 12.204-1.917 10.632-10.174 10.632-10.174-.2-4.354-18.603-27.2-19.638-28.49a.7.7 0 0 1-.1-.123 2.33 2.33 0 0 1-.376-1.795 112.3 112.3 0 0 0 .361-40.665 114 114 0 0 0-4.465-17.469M144.77 506.744c5.774-7.466.136-15.611.136-15.611"/><path stroke="#fff" stroke-linecap="round" stroke-miterlimit="10" stroke-width="2.35" d="M93.603 439.108a47.7 47.7 0 0 0 17.197 24.447 47.5 47.5 0 0 0 28.335 9.377 47.5 47.5 0 0 0 28.334-9.378 47.73 47.73 0 0 0 17.199-24.446"/><path stroke="#fff" stroke-linecap="round" stroke-miterlimit="10" stroke-width="2.35" d="M189.115 446.911a8.3 8.3 0 0 0 3.466-3.779 8.4 8.4 0 0 0 .603-5.113 8.36 8.36 0 0 0-3.515-5.31 8.21 8.21 0 0 0-10.662 1.263 8.37 8.37 0 0 0-2.144 4.674M89.155 446.911a8.3 8.3 0 0 1-3.468-3.779 8.4 8.4 0 0 1 .628-8.121 8.3 8.3 0 0 1 2.28-2.303 8.2 8.2 0 0 1 2.98-1.247 8.2 8.2 0 0 1 3.227-.001 8.25 8.25 0 0 1 4.458 2.513 8.37 8.37 0 0 1 2.145 4.674"/></g><defs><linearGradient id="b" x1="198.263" x2="460.326" y1="455.79" y2="327.027" gradientUnits="userSpaceOnUse"><stop/><stop offset=".38" stop-color="#010002"/><stop offset=".52" stop-color="#050009"/><stop offset=".62" stop-color="#0D0014"/><stop offset=".7" stop-color="#170025"/><stop offset=".77" stop-color="#24003B"/><stop offset=".83" stop-color="#350057"/><stop offset=".88" stop-color="#490077"/><stop offset=".93" stop-color="#60009D"/><stop offset=".98" stop-color="#7900C6"/><stop offset="1" stop-color="#8700DC"/></linearGradient><linearGradient id="c" x1="129.757" x2="311.038" y1="348.676" y2="94.681" gradientUnits="userSpaceOnUse"><stop/><stop offset=".38"/><stop offset=".52" stop-color="#050009"/><stop offset=".62" stop-color="#0D0014"/><stop offset=".7" stop-color="#170025"/><stop offset=".77" stop-color="#24003B"/><stop offset=".83" stop-color="#350057"/><stop offset=".88" stop-color="#490077"/><stop offset=".93" stop-color="#60009D"/><stop offset=".98" stop-color="#7900C6"/><stop offset="1" stop-color="#8700DC"/></linearGradient><linearGradient id="d" x1="450.231" x2="450.231" y1="231.497" y2="366.964" gradientUnits="userSpaceOnUse"><stop offset=".122" stop-color="#FF7A00"/><stop offset=".766" stop-color="#FF00F5" stop-opacity="0"/></linearGradient><linearGradient id="e" x1="312.603" x2="312.603" y1="130.224" y2="340.981" gradientUnits="userSpaceOnUse"><stop offset=".122" stop-color="#FF7A00"/><stop offset=".766" stop-color="#FF00F5" stop-opacity="0"/></linearGradient><linearGradient id="f" x1="465.815" x2="307.084" y1="307.81" y2="498.421" gradientUnits="userSpaceOnUse"><stop stop-color="#FF5A00" stop-opacity="0"/><stop offset=".38" stop-color="#FE5902" stop-opacity=".01"/><stop offset=".52" stop-color="#FA5609" stop-opacity=".04"/><stop offset=".62" stop-color="#F45214" stop-opacity=".09"/><stop offset=".7" stop-color="#EB4B25" stop-opacity=".17"/><stop offset=".77" stop-color="#DF423B" stop-opacity=".27"/><stop offset=".83" stop-color="#D03757" stop-opacity=".39"/><stop offset=".88" stop-color="#BE2977" stop-opacity=".54"/><stop offset=".93" stop-color="#AA1A9D" stop-opacity=".71"/><stop offset=".98" stop-color="#9309C6" stop-opacity=".9"/><stop offset="1" stop-color="#8700DC"/></linearGradient><linearGradient id="g" x1="380.662" x2="416.965" y1="229.298" y2="427.314" gradientUnits="userSpaceOnUse"><stop stop-color="#FF5A00" stop-opacity="0"/><stop offset=".38" stop-color="#FE5902" stop-opacity=".01"/><stop offset=".52" stop-color="#FA5609" stop-opacity=".04"/><stop offset=".62" stop-color="#F45214" stop-opacity=".09"/><stop offset=".7" stop-color="#EB4B25" stop-opacity=".17"/><stop offset=".77" stop-color="#DF423B" stop-opacity=".27"/><stop offset=".83" stop-color="#D03757" stop-opacity=".39"/><stop offset=".88" stop-color="#BE2977" stop-opacity=".54"/><stop offset=".93" stop-color="#AA1A9D" stop-opacity=".71"/><stop offset=".98" stop-color="#9309C6" stop-opacity=".9"/><stop offset="1" stop-color="#8700DC"/></linearGradient><linearGradient id="h" x1="343.559" x2="310.25" y1="268.007" y2="69.465" gradientUnits="userSpaceOnUse"><stop stop-color="#FF5A00" stop-opacity="0"/><stop offset=".38" stop-color="#FE5902" stop-opacity=".01"/><stop offset=".52" stop-color="#FA5609" stop-opacity=".04"/><stop offset=".62" stop-color="#F45214" stop-opacity=".09"/><stop offset=".7" stop-color="#EB4B25" stop-opacity=".17"/><stop offset=".77" stop-color="#DF423B" stop-opacity=".27"/><stop offset=".83" stop-color="#D03757" stop-opacity=".39"/><stop offset=".88" stop-color="#BE2977" stop-opacity=".54"/><stop offset=".93" stop-color="#AA1A9D" stop-opacity=".71"/><stop offset=".98" stop-color="#9309C6" stop-opacity=".9"/><stop offset="1" stop-color="#8700DC"/></linearGradient><linearGradient id="i" x1="253.02" x2="103.974" y1="328.035" y2="192.705" gradientUnits="userSpaceOnUse"><stop stop-color="#FF5A00" stop-opacity="0"/><stop offset=".38" stop-color="#FE5902" stop-opacity=".01"/><stop offset=".52" stop-color="#FA5609" stop-opacity=".04"/><stop offset=".62" stop-color="#F45214" stop-opacity=".09"/><stop offset=".7" stop-color="#EB4B25" stop-opacity=".17"/><stop offset=".77" stop-color="#DF423B" stop-opacity=".27"/><stop offset=".83" stop-color="#D03757" stop-opacity=".39"/><stop offset=".88" stop-color="#BE2977" stop-opacity=".54"/><stop offset=".93" stop-color="#AA1A9D" stop-opacity=".71"/><stop offset=".98" stop-color="#9309C6" stop-opacity=".9"/><stop offset="1" stop-color="#8700DC"/></linearGradient><linearGradient id="j" x1="322.81" x2="124.644" y1="313.277" y2="277.795" gradientUnits="userSpaceOnUse"><stop stop-color="#FF5A00" stop-opacity="0"/><stop offset=".38" stop-color="#FE5902" stop-opacity=".01"/><stop offset=".52" stop-color="#FA5609" stop-opacity=".04"/><stop offset=".62" stop-color="#F45214" stop-opacity=".09"/><stop offset=".7" stop-color="#EB4B25" stop-opacity=".17"/><stop offset=".77" stop-color="#DF423B" stop-opacity=".27"/><stop offset=".83" stop-color="#D03757" stop-opacity=".39"/><stop offset=".88" stop-color="#BE2977" stop-opacity=".54"/><stop offset=".93" stop-color="#AA1A9D" stop-opacity=".71"/><stop offset=".98" stop-color="#9309C6" stop-opacity=".9"/><stop offset="1" stop-color="#8700DC"/></linearGradient><linearGradient id="k" x1="399.831" x2="514.391" y1="233.172" y2="118.726" gradientUnits="userSpaceOnUse"><stop/><stop offset=".37" stop-color="#020100"/><stop offset=".51" stop-color="#090300"/><stop offset=".6" stop-color="#140600"/><stop offset=".68" stop-color="#250C00"/><stop offset=".75" stop-color="#3B1300"/><stop offset=".81" stop-color="#571B00"/><stop offset=".86" stop-color="#772500"/><stop offset=".91" stop-color="#9D3100"/><stop offset=".95" stop-color="#C83F00"/><stop offset=".99" stop-color="#F64D00"/><stop offset="1" stop-color="#FF5000"/></linearGradient><linearGradient id="l" x1="456.354" x2="456.354" y1="213.715" y2="195.521" gradientUnits="userSpaceOnUse"><stop stop-color="#BE0000" stop-opacity="0"/><stop offset=".11" stop-color="#BE0000" stop-opacity=".04"/><stop offset=".27" stop-color="#BE0000" stop-opacity=".16"/><stop offset=".47" stop-color="#BE0000" stop-opacity=".35"/><stop offset=".71" stop-color="#BE0000" stop-opacity=".62"/><stop offset=".97" stop-color="#BE0000" stop-opacity=".96"/><stop offset="1" stop-color="#BE0000"/></linearGradient><linearGradient id="m" x1="424.894" x2="487.97" y1="132.01" y2="69.088" gradientUnits="userSpaceOnUse"><stop/><stop offset=".38" stop-color="#010002"/><stop offset=".52" stop-color="#050009"/><stop offset=".62" stop-color="#0D0014"/><stop offset=".7" stop-color="#170025"/><stop offset=".77" stop-color="#24003B"/><stop offset=".83" stop-color="#350057"/><stop offset=".88" stop-color="#490077"/><stop offset=".93" stop-color="#60009D"/><stop offset=".98" stop-color="#7900C6"/><stop offset="1" stop-color="#8700DC"/></linearGradient><linearGradient id="n" x1="421.332" x2="421.332" y1="184.292" y2="153.478" gradientUnits="userSpaceOnUse"><stop/><stop offset=".38" stop-color="#010002"/><stop offset=".52" stop-color="#050009"/><stop offset=".62" stop-color="#0D0014"/><stop offset=".7" stop-color="#170025"/><stop offset=".77" stop-color="#24003B"/><stop offset=".83" stop-color="#350057"/><stop offset=".88" stop-color="#490077"/><stop offset=".93" stop-color="#60009D"/><stop offset=".98" stop-color="#7900C6"/><stop offset="1" stop-color="#8700DC"/></linearGradient><linearGradient id="o" x1="491.374" x2="491.374" y1="184.292" y2="153.478" gradientUnits="userSpaceOnUse"><stop/><stop offset=".38" stop-color="#010002"/><stop offset=".52" stop-color="#050009"/><stop offset=".62" stop-color="#0D0014"/><stop offset=".7" stop-color="#170025"/><stop offset=".77" stop-color="#24003B"/><stop offset=".83" stop-color="#350057"/><stop offset=".88" stop-color="#490077"/><stop offset=".93" stop-color="#60009D"/><stop offset=".98" stop-color="#7900C6"/><stop offset="1" stop-color="#8700DC"/></linearGradient><linearGradient id="p" x1="301.817" x2="365.314" y1="388.696" y2="266.439" gradientUnits="userSpaceOnUse"><stop/><stop offset=".38" stop-color="#010002"/><stop offset=".52" stop-color="#050009"/><stop offset=".62" stop-color="#0D0014"/><stop offset=".7" stop-color="#170025"/><stop offset=".77" stop-color="#24003B"/><stop offset=".83" stop-color="#350057"/><stop offset=".88" stop-color="#490077"/><stop offset=".93" stop-color="#60009D"/><stop offset=".98" stop-color="#7900C6"/><stop offset="1" stop-color="#8700DC"/></linearGradient><linearGradient id="q" x1="351.663" x2="315.956" y1="260.415" y2="393.349" gradientUnits="userSpaceOnUse"><stop stop-color="#8700DC" stop-opacity="0"/><stop offset=".38" stop-color="#8700DC" stop-opacity=".01"/><stop offset=".52" stop-color="#8700DC" stop-opacity=".04"/><stop offset=".62" stop-color="#8700DC" stop-opacity=".09"/><stop offset=".7" stop-color="#8700DC" stop-opacity=".17"/><stop offset=".77" stop-color="#8700DC" stop-opacity=".27"/><stop offset=".83" stop-color="#8700DC" stop-opacity=".39"/><stop offset=".88" stop-color="#8700DC" stop-opacity=".54"/><stop offset=".93" stop-color="#8700DC" stop-opacity=".71"/><stop offset=".98" stop-color="#8700DC" stop-opacity=".9"/><stop offset="1" stop-color="#8700DC"/></linearGradient><linearGradient id="r" x1="286.095" x2="379.952" y1="280.56" y2="375.037" gradientUnits="userSpaceOnUse"><stop stop-color="#FF5A00" stop-opacity="0"/><stop offset="1" stop-color="#FF5A00"/></linearGradient><linearGradient id="u" x1="335.763" x2="335.763" y1="353.739" y2="342.111" gradientUnits="userSpaceOnUse"><stop stop-color="#BE0000" stop-opacity="0"/><stop offset=".4" stop-color="#BE0000" stop-opacity=".01"/><stop offset=".54" stop-color="#BE0000" stop-opacity=".05"/><stop offset=".64" stop-color="#BE0000" stop-opacity=".11"/><stop offset=".72" stop-color="#BE0000" stop-opacity=".2"/><stop offset=".79" stop-color="#BE0000" stop-opacity=".31"/><stop offset=".85" stop-color="#BE0000" stop-opacity=".46"/><stop offset=".91" stop-color="#BE0000" stop-opacity=".63"/><stop offset=".96" stop-color="#BE0000" stop-opacity=".82"/><stop offset="1" stop-color="#BE0000"/></linearGradient><linearGradient id="v" x1="381.623" x2="362.873" y1="298.498" y2="317.998" gradientUnits="userSpaceOnUse"><stop stop-color="#FF5A00" stop-opacity="0"/><stop offset="1" stop-color="#FF5A00"/></linearGradient><linearGradient id="w" x1="296.913" x2="315.66" y1="292.96" y2="312.456" gradientUnits="userSpaceOnUse"><stop stop-color="#FF5A00" stop-opacity="0"/><stop offset="1" stop-color="#FF5A00"/></linearGradient><linearGradient id="x" x1="100.429" x2="158.918" y1="534.477" y2="319.492" gradientUnits="userSpaceOnUse"><stop stop-color="#8700DC" stop-opacity="0"/><stop offset=".37" stop-color="#8801DA" stop-opacity=".01"/><stop offset=".51" stop-color="#8B03D5" stop-opacity=".03"/><stop offset=".6" stop-color="#9107CA" stop-opacity=".08"/><stop offset=".68" stop-color="#990DBC" stop-opacity=".15"/><stop offset=".75" stop-color="#A315A9" stop-opacity=".23"/><stop offset=".8" stop-color="#B01F91" stop-opacity=".34"/><stop offset=".86" stop-color="#BF2A75" stop-opacity=".47"/><stop offset=".91" stop-color="#D13755" stop-opacity=".61"/><stop offset=".95" stop-color="#E5472F" stop-opacity=".78"/><stop offset=".99" stop-color="#FB5708" stop-opacity=".96"/><stop offset="1" stop-color="#FF5A00"/></linearGradient><linearGradient id="y" x1="56.779" x2="194.757" y1="365.779" y2="503.757" gradientUnits="userSpaceOnUse"><stop stop-color="#FF5A00" stop-opacity="0"/><stop offset="1" stop-color="#FF5A00"/></linearGradient><linearGradient id="z" x1="95.773" x2="95.773" y1="446.031" y2="407.011" gradientUnits="userSpaceOnUse"><stop stop-color="#BE0000" stop-opacity="0"/><stop offset=".4" stop-color="#BE0000" stop-opacity=".01"/><stop offset=".54" stop-color="#BE0000" stop-opacity=".05"/><stop offset=".64" stop-color="#BE0000" stop-opacity=".11"/><stop offset=".72" stop-color="#BE0000" stop-opacity=".2"/><stop offset=".79" stop-color="#BE0000" stop-opacity=".31"/><stop offset=".85" stop-color="#BE0000" stop-opacity=".46"/><stop offset=".91" stop-color="#BE0000" stop-opacity=".63"/><stop offset=".96" stop-color="#BE0000" stop-opacity=".82"/><stop offset="1" stop-color="#BE0000"/></linearGradient><linearGradient id="A" x1="183.376" x2="183.376" y1="446.031" y2="407.011" gradientUnits="userSpaceOnUse"><stop stop-color="#BE0000" stop-opacity="0"/><stop offset=".4" stop-color="#BE0000" stop-opacity=".01"/><stop offset=".54" stop-color="#BE0000" stop-opacity=".05"/><stop offset=".64" stop-color="#BE0000" stop-opacity=".11"/><stop offset=".72" stop-color="#BE0000" stop-opacity=".2"/><stop offset=".79" stop-color="#BE0000" stop-opacity=".31"/><stop offset=".85" stop-color="#BE0000" stop-opacity=".46"/><stop offset=".91" stop-color="#BE0000" stop-opacity=".63"/><stop offset=".96" stop-color="#BE0000" stop-opacity=".82"/><stop offset="1" stop-color="#BE0000"/></linearGradient><clipPath id="a"><path fill="#fff" d="M0 0h564v564H0z"/></clipPath></defs></svg>